<svg width="46" height="33" viewBox="0 0 46 33" fill="none" xmlns="http://www.w3.org/2000/svg">
    <mask id="b" fill="#fff">
        <path d="M39.784 15.122a11.196 11.196 0 0 0-2.671-3.712l-.938-.86a.26.26 0 0 0-.419.106l-.419 1.202c-.26.754-.74 1.524-1.42 2.281a.201.201 0 0 1-.133.065.178.178 0 0 1-.138-.049.19.19 0 0 1-.065-.154c.12-1.94-.46-4.128-1.73-6.509-1.05-1.978-2.51-3.521-4.333-4.597l-1.33-.783a.258.258 0 0 0-.388.235l.071 1.546c.049 1.057-.074 1.992-.364 2.768a9.188 9.188 0 0 1-1.514 2.626 9.527 9.527 0 0 1-1.53 1.485 11.36 11.36 0 0 0-3.232 3.915 11.203 11.203 0 0 0-.274 9.353 11.322 11.322 0 0 0 6.038 5.98c1.398.587 2.88.883 4.41.883 1.531 0 3.013-.296 4.412-.88a11.23 11.23 0 0 0 3.605-2.406 11.154 11.154 0 0 0 3.325-7.955c0-1.573-.322-3.1-.963-4.54z"/>
    </mask>
    <path d="M39.784 15.122a11.196 11.196 0 0 0-2.671-3.712l-.938-.86a.26.26 0 0 0-.419.106l-.419 1.202c-.26.754-.74 1.524-1.42 2.281a.201.201 0 0 1-.133.065.178.178 0 0 1-.138-.049.19.19 0 0 1-.065-.154c.12-1.94-.46-4.128-1.73-6.509-1.05-1.978-2.51-3.521-4.333-4.597l-1.33-.783a.258.258 0 0 0-.388.235l.071 1.546c.049 1.057-.074 1.992-.364 2.768a9.188 9.188 0 0 1-1.514 2.626 9.527 9.527 0 0 1-1.53 1.485 11.36 11.36 0 0 0-3.232 3.915 11.203 11.203 0 0 0-.274 9.353 11.322 11.322 0 0 0 6.038 5.98c1.398.587 2.88.883 4.41.883 1.531 0 3.013-.296 4.412-.88a11.23 11.23 0 0 0 3.605-2.406 11.154 11.154 0 0 0 3.325-7.955c0-1.573-.322-3.1-.963-4.54z" fill="url(#a)"/>
    <path d="m37.113 11.41-.676.737.676-.737zm-.938-.86.676-.737-.01-.01-.666.747zm-.419.106-.94-.338-.004.01.944.328zm-.419 1.202-.944-.329v.002l.944.327zm-1.42 2.281.73.683.007-.007.007-.008-.744-.668zm-.271.016.682-.73-.015-.015-.016-.014-.651.76zm-.065-.154-.998-.062v.006l.998.056zm-1.73-6.509-.883.47.883-.47zm-4.333-4.597.508-.862h-.001l-.507.862zm-1.33-.783-.51.86.002.001.507-.861zm-.388.235 1-.046v-.002l-1 .048zm.071 1.546 1-.045-1 .045zm-.364 2.768-.937-.35.937.35zm-1.514 2.626.772.635-.772-.635zm-1.53 1.485.609.793.002-.002-.612-.79zm-3.232 3.915-.894-.448-.002.004.896.444zm-1.167 4.972-1-.001h1zm.893 4.381-.92.393v.001l.92-.394zm2.433 3.574-.704.71v.001l.704-.711zm3.605 2.406.387-.922h-.002l-.385.922zm8.822.004-.385-.924.385.924zm3.605-2.407-.703-.712-.002.003.705.709zm2.433-3.573-.92-.393.92.393zm.892-4.382h-1v.002l1-.002zm-.05-4.946a12.196 12.196 0 0 0-2.909-4.043l-1.35 1.475a10.196 10.196 0 0 1 2.432 3.38l1.828-.812zm-2.908-4.043-.938-.86-1.352 1.474.938.86 1.352-1.474zm-.948-.87a1.261 1.261 0 0 0-.54-.283l-.475 1.943a.74.74 0 0 1-.317-.167l1.332-1.492zm-.54-.283a1.26 1.26 0 0 0-.61.003l.493 1.938a.74.74 0 0 1-.358.002L36.3 9.52zm-.61.003c-.2.05-.384.15-.537.288l1.345 1.48a.739.739 0 0 1-.315.17l-.492-1.938zm-.537.288c-.153.139-.269.313-.339.507l1.882.677a.74.74 0 0 1-.198.297l-1.345-1.48zm-.342.516-.419 1.202 1.889.658.419-1.202-1.889-.658zm-.42 1.204c-.207.598-.605 1.256-1.22 1.94l1.489 1.336c.745-.83 1.307-1.712 1.621-2.622l-1.89-.654zm-1.206 1.926a.798.798 0 0 1 .508-.25l.181 1.993c.194-.018.509-.096.773-.378l-1.462-1.365zm.508-.25a.822.822 0 0 1 .634.217l-1.364 1.462c.31.29.675.335.911.314l-.181-1.992zm.603.19a.81.81 0 0 1 .283.66l-1.997-.112c-.02.346.114.714.412.97l1.302-1.519zm.283.665c.134-2.182-.522-4.556-1.846-7.04l-1.765.94c1.214 2.279 1.719 4.28 1.614 5.977l1.997.123zm-1.846-7.039c-1.132-2.133-2.718-3.815-4.708-4.99l-1.017 1.723c1.658.978 2.99 2.382 3.96 4.205l1.765-.938zm-4.71-4.99-1.33-.783-1.014 1.723 1.33.783 1.015-1.723zm-1.327-.782c-.871-.516-1.942.159-1.895 1.143l1.997-.095a.742.742 0 0 1-1.122.673l1.02-1.72zm-1.895 1.142.07 1.546 1.998-.091L26.8 2.3l-1.998.092zm.07 1.546c.044.958-.07 1.752-.302 2.372l1.874.7c.348-.933.48-2.008.426-3.163l-1.998.091zm-.302 2.373a8.19 8.19 0 0 1-1.35 2.34l1.546 1.27a10.187 10.187 0 0 0 1.678-2.912l-1.874-.698zm-1.35 2.34a8.527 8.527 0 0 1-1.37 1.33l1.224 1.581a10.523 10.523 0 0 0 1.691-1.64l-1.544-1.271zm-1.367 1.327a12.36 12.36 0 0 0-3.516 4.26l1.788.896a10.361 10.361 0 0 1 2.947-3.57L21.853 9.98zm-3.518 4.264a12.204 12.204 0 0 0-1.27 5.415l2 .001c0-1.57.364-3.12 1.062-4.528l-1.792-.888zm-1.27 5.415c0 1.655.326 3.261.972 4.775l1.84-.785a10.09 10.09 0 0 1-.813-3.99h-2zm.973 4.776a12.256 12.256 0 0 0 2.648 3.89l1.407-1.421a10.259 10.259 0 0 1-2.217-3.256l-1.838.787zm2.649 3.891a12.32 12.32 0 0 0 3.922 2.618l.771-1.845a10.32 10.32 0 0 1-3.288-2.196l-1.405 1.423zm3.921 2.618c1.522.638 3.136.96 4.798.96v-2c-1.4 0-2.75-.27-4.024-.805l-.774 1.845zm4.798.96c1.662 0 3.275-.322 4.796-.956l-.77-1.846a10.393 10.393 0 0 1-4.026.802v2zm4.795-.956c1.467-.61 2.8-1.5 3.926-2.621l-1.41-1.418a10.232 10.232 0 0 1-3.285 2.192l.769 1.847zm3.924-2.619a12.154 12.154 0 0 0 2.65-3.892l-1.84-.785a10.152 10.152 0 0 1-2.216 3.254l1.406 1.423zm2.65-3.891a12.09 12.09 0 0 0 .972-4.777l-2 .004a10.089 10.089 0 0 1-.812 3.987l1.84.786zm.972-4.775a12.09 12.09 0 0 0-1.05-4.947l-1.827.814c.584 1.311.877 2.7.877 4.133h2z" fill="#fff" mask="url(#b)"/>
    <mask id="d" fill="#fff">
        <path d="M26.874 15.122a11.196 11.196 0 0 0-2.671-3.712l-.938-.86a.262.262 0 0 0-.349.001.26.26 0 0 0-.07.105l-.419 1.202c-.26.754-.74 1.524-1.42 2.281a.2.2 0 0 1-.133.065.178.178 0 0 1-.138-.049.19.19 0 0 1-.065-.154c.12-1.94-.46-4.128-1.73-6.509-1.05-1.978-2.51-3.521-4.333-4.597l-1.331-.783a.258.258 0 0 0-.387.235l.071 1.546c.048 1.057-.074 1.992-.364 2.768a9.186 9.186 0 0 1-1.514 2.626 9.527 9.527 0 0 1-1.53 1.485 11.36 11.36 0 0 0-3.232 3.915 11.204 11.204 0 0 0-.274 9.353 11.322 11.322 0 0 0 6.038 5.98c1.398.587 2.88.883 4.41.883 1.531 0 3.013-.296 4.412-.88a11.23 11.23 0 0 0 3.605-2.406 11.154 11.154 0 0 0 3.325-7.955c0-1.573-.322-3.1-.963-4.54z"/>
    </mask>
    <path d="M26.874 15.122a11.196 11.196 0 0 0-2.671-3.712l-.938-.86a.262.262 0 0 0-.349.001.26.26 0 0 0-.07.105l-.419 1.202c-.26.754-.74 1.524-1.42 2.281a.2.2 0 0 1-.133.065.178.178 0 0 1-.138-.049.19.19 0 0 1-.065-.154c.12-1.94-.46-4.128-1.73-6.509-1.05-1.978-2.51-3.521-4.333-4.597l-1.331-.783a.258.258 0 0 0-.387.235l.071 1.546c.048 1.057-.074 1.992-.364 2.768a9.186 9.186 0 0 1-1.514 2.626 9.527 9.527 0 0 1-1.53 1.485 11.36 11.36 0 0 0-3.232 3.915 11.204 11.204 0 0 0-.274 9.353 11.322 11.322 0 0 0 6.038 5.98c1.398.587 2.88.883 4.41.883 1.531 0 3.013-.296 4.412-.88a11.23 11.23 0 0 0 3.605-2.406 11.154 11.154 0 0 0 3.325-7.955c0-1.573-.322-3.1-.963-4.54z" fill="url(#c)"/>
    <path d="m24.203 11.41-.676.737.676-.737zm-.938-.86.676-.737-.01-.01-.666.747zm-.419.106-.94-.338-.004.01.944.328zm-.419 1.202-.944-.329v.002l.944.327zm-1.42 2.281.73.683.007-.007.006-.008-.744-.668zm-.271.016.682-.73-.015-.015-.016-.014-.651.76zm-.065-.154-.998-.062v.006l.998.056zm-1.73-6.509-.883.47.883-.47zm-4.333-4.597.508-.862h-.001l-.507.862zm-1.331-.783-.51.86.003.001.507-.861zm-.387.235 1-.046v-.002l-1 .048zm.071 1.546 1-.045-1 .045zm-.364 2.768-.937-.35.937.35zm-1.514 2.626.772.635-.772-.635zm-1.53 1.485.609.793.002-.002-.612-.79zM6.32 14.687l-.894-.448-.002.004.896.444zm-1.167 4.972-1-.001h1zm.893 4.381-.92.393v.001l.92-.394zm2.432 3.574-.703.71v.001l.703-.711zm3.606 2.406.386-.922-.386.922zm8.822.004-.385-.924.385.924zm3.605-2.407-.703-.712-.002.003.705.709zm2.433-3.573-.92-.393.92.393zm.892-4.382h-1v.002l1-.002zm-.05-4.946a12.193 12.193 0 0 0-2.91-4.043l-1.35 1.475a10.196 10.196 0 0 1 2.433 3.38l1.828-.812zm-2.908-4.043-.938-.86-1.352 1.474.938.86 1.352-1.474zm-.948-.87a1.26 1.26 0 0 0-.54-.283l-.475 1.943a.74.74 0 0 1-.317-.167l1.332-1.492zm-.54-.283a1.26 1.26 0 0 0-.61.003l.492 1.938a.74.74 0 0 1-.357.002l.475-1.943zm-.61.003c-.2.05-.384.15-.537.288l1.345 1.48a.739.739 0 0 1-.316.17l-.492-1.938zm-.537.288a1.26 1.26 0 0 0-.339.507l1.882.677a.739.739 0 0 1-.198.297l-1.345-1.48zm-.342.516-.419 1.202 1.889.658.419-1.202-1.89-.658zm-.42 1.204c-.207.598-.605 1.256-1.22 1.94l1.488 1.336c.745-.83 1.307-1.712 1.622-2.622l-1.89-.654zm-1.207 1.926a.799.799 0 0 1 .509-.25l.18 1.993c.195-.018.51-.096.774-.378l-1.463-1.365zm.509-.25a.822.822 0 0 1 .634.217l-1.364 1.462c.31.29.675.335.91.314l-.18-1.992zm.603.19a.81.81 0 0 1 .283.66l-1.997-.112c-.02.346.114.714.412.97l1.302-1.519zm.282.665c.135-2.182-.521-4.556-1.845-7.04l-1.765.94c1.214 2.279 1.719 4.28 1.614 5.977l1.997.123zm-1.845-7.039c-1.132-2.133-2.718-3.815-4.708-4.99l-1.017 1.723c1.657.978 2.99 2.382 3.959 4.205l1.766-.938zm-4.71-4.99-1.33-.783-1.014 1.723 1.33.783 1.015-1.723zm-1.327-.782c-.871-.516-1.943.159-1.896 1.143L13.89 2.3a.742.742 0 0 1-1.122.673l1.02-1.72zM11.89 2.393l.071 1.546 1.998-.091-.07-1.547-1.999.092zm.071 1.546c.044.958-.07 1.752-.302 2.372l1.874.7c.348-.933.479-2.008.426-3.163l-1.998.091zm-.302 2.373a8.188 8.188 0 0 1-1.35 2.34l1.546 1.27a10.191 10.191 0 0 0 1.678-2.912l-1.874-.698zm-1.35 2.34a8.524 8.524 0 0 1-1.37 1.33l1.224 1.581a10.524 10.524 0 0 0 1.691-1.64L10.31 8.651zM8.943 9.979a12.36 12.36 0 0 0-3.516 4.26l1.788.896a10.36 10.36 0 0 1 2.947-3.57L8.942 9.98zm-3.518 4.264a12.204 12.204 0 0 0-1.27 5.415l2 .001c0-1.57.364-3.12 1.062-4.528l-1.792-.888zm-1.27 5.415c0 1.655.326 3.261.972 4.775l1.84-.785a10.09 10.09 0 0 1-.813-3.99h-2zm.973 4.776a12.258 12.258 0 0 0 2.648 3.89l1.407-1.421a10.258 10.258 0 0 1-2.217-3.256l-1.838.787zm2.649 3.891a12.32 12.32 0 0 0 3.922 2.618l.771-1.845a10.32 10.32 0 0 1-3.288-2.196l-1.405 1.423zm3.921 2.618c1.522.638 3.136.96 4.798.96v-2c-1.4 0-2.75-.27-4.024-.805l-.774 1.845zm4.798.96c1.662 0 3.274-.322 4.796-.956l-.77-1.846a10.393 10.393 0 0 1-4.026.802v2zm4.795-.956c1.466-.61 2.8-1.5 3.926-2.621l-1.41-1.418a10.233 10.233 0 0 1-3.285 2.192l.769 1.847zm3.924-2.619a12.154 12.154 0 0 0 2.65-3.892l-1.84-.785a10.154 10.154 0 0 1-2.216 3.254l1.406 1.423zm2.65-3.891a12.09 12.09 0 0 0 .972-4.777l-2 .004a10.09 10.09 0 0 1-.812 3.987l1.84.786zm.972-4.775a12.09 12.09 0 0 0-1.05-4.947l-1.827.814c.584 1.311.877 2.7.877 4.133h2z" fill="#fff" mask="url(#d)"/>
    <defs>
        <linearGradient id="a" x1="29.406" y1="2.076" x2="29.406" y2="30.903" gradientUnits="userSpaceOnUse">
            <stop stop-color="#25ED51"/>
            <stop offset="1" stop-color="#307D1D"/>
        </linearGradient>
        <linearGradient id="c" x1="16.496" y1="2.076" x2="16.496" y2="30.903" gradientUnits="userSpaceOnUse">
            <stop stop-color="#25ED51"/>
            <stop offset="1" stop-color="#307D1D"/>
        </linearGradient>
    </defs>
</svg>
