<?xml version="1.0" encoding="utf-8"?>
<!-- Generator: Adobe Illustrator 18.1.1, SVG Export Plug-In . SVG Version: 6.00 Build 0)  -->
<svg version="1.1" id="Layer_1" xmlns="http://www.w3.org/2000/svg" xmlns:xlink="http://www.w3.org/1999/xlink" x="0px" y="0px"
	 width="47px" height="60px" viewBox="0 0 47 60" style="enable-background:new 0 0 47 60;" xml:space="preserve">
<g>
	<path style="fill:#FFFFFF;" d="M32.5,36c0.5,0,0.9,0,1.4,0.1V7.1h-4.2v29.4C30.5,36.2,31.5,36,32.5,36z"/>
	<path style="fill:#FFFFFF;" d="M23.9,41.1l-0.3-0.6L17.4,44h0l-4-2.2l0-41.2H9.2l0,43.6v0l8.2,4.5l0,0l0,0l5.3-2.9
		C22.7,44.1,23.1,42.5,23.9,41.1z"/>
	<path style="fill:#FFFFFF;" d="M24,50.8l-6.6,3.7L5.1,47.6V7.1H1v43h0l16.4,9.1l0,0l9.5-5.3C25.7,53.1,24.7,52,24,50.8z"/>
	<path style="fill:#FFFFFF;" d="M32.5,59.4c-7.5,0-13.6-6.1-13.6-13.6c0-7.5,6.1-13.6,13.6-13.6c7.5,0,13.6,6.1,13.6,13.6
		C46,53.3,39.9,59.4,32.5,59.4z M32.5,36.4c-5.2,0-9.4,4.2-9.4,9.4c0,5.2,4.2,9.4,9.4,9.4c5.2,0,9.4-4.2,9.4-9.4
		C41.9,40.7,37.6,36.4,32.5,36.4z"/>
</g>
</svg>
