<?xml version="1.0" encoding="utf-8"?>
<!-- Generator: Adobe Illustrator 18.1.1, SVG Export Plug-In . SVG Version: 6.00 Build 0)  -->
<svg version="1.1" id="Layer_1" xmlns="http://www.w3.org/2000/svg" xmlns:xlink="http://www.w3.org/1999/xlink" x="0px" y="0px"
	 width="530px" height="360px" viewBox="0 0 530 360" style="enable-background:new 0 0 530 360;" xml:space="preserve">
<g>
	<g>
		<path style="fill:#FFFFFF;" d="M286.2,95c1.1,0,2.2,0.1,3.2,0.2V26.6h-9.9v69.3C281.6,95.3,283.8,95,286.2,95z"/>
		<path style="fill:#933D62;" d="M265.8,107l-0.8-1.4l-14.6,8.1h0l-9.5-5.3l0-97.1h-9.9l0,102.9v0l19.3,10.7l0,0l0,0l12.5-6.9
			C263,114.1,264,110.3,265.8,107z"/>
		<path style="fill:#F0A158;" d="M266.1,129.7l-15.5,8.6l-28.9-16.1V26.6h-9.9v101.5h0l38.8,21.5l0,0l22.4-12.4
			C270.2,135.3,267.8,132.7,266.1,129.7z"/>
		<path style="fill:#329794;" d="M286.2,150.2c-17.7,0-32-14.4-32-32c0-17.7,14.4-32,32-32c17.7,0,32,14.4,32,32
			C318.2,135.8,303.8,150.2,286.2,150.2z M286.2,95.9c-12.2,0-22.2,9.9-22.2,22.2c0,12.2,9.9,22.2,22.2,22.2
			c12.2,0,22.2-9.9,22.2-22.2C308.3,105.9,298.4,95.9,286.2,95.9z"/>
	</g>
	<g id="AstGeek_1_">
		<g>
			<g>
				<polygon style="fill:#FFFFFF;" points="491.7,269 516.5,348.7 505.2,348.7 485.1,283 482.9,288.4 482.9,348.7 472.1,348.7 
					472.1,213.1 482.9,213.1 482.9,265.2 505.2,213.1 516.5,213.1 				"/>
			</g>
			<g>
				<polygon style="fill:#FFFFFF;" points="409.1,224.5 409.1,269.7 426.4,269.7 426.4,281 409.1,281 409.1,337 426.4,337 
					426.4,348.7 398.4,348.7 398.4,213.1 426.4,213.1 426.4,224.5 				"/>
			</g>
			<g>
				<polygon style="fill:#FFFFFF;" points="338.8,224.5 338.8,269.7 356.2,269.7 356.2,281 338.8,281 338.8,337 356.2,337 
					356.2,348.7 328.1,348.7 328.1,213.1 356.2,213.1 356.2,224.5 				"/>
			</g>
			<g>
				<polygon style="fill:#FFFFFF;" points="270.2,241.9 270.2,224.7 257.6,224.7 257.6,337 270.2,337.4 270.2,280.6 264.4,280.6 
					264.4,270.2 280.9,270.2 280.9,337.1 272.8,348.1 256.3,348.1 246.9,337 246.9,225.4 256.3,213.2 272.8,213.2 280.9,225.4 
					280.9,241.9 				"/>
			</g>
			<g>
				<polygon style="fill:#FFFFFF;" points="202.1,213.2 202.1,222 190.5,222 190.5,348.5 179.6,348.5 179.6,222 167.9,222 
					167.9,213.2 				"/>
			</g>
			<g>
				<polygon style="fill:#FFFFFF;" points="116.7,242.1 116.7,224.5 104.3,224.5 104.3,270.1 115,270.1 125.7,280.4 125.7,336.9 
					115,348 104.3,348 93.4,336.9 93.4,311 104.7,311 104.7,336.7 115,336.7 115,281.5 104.3,281.5 93.6,270.1 93.6,222.5 
					104.3,213.1 116.7,213.1 127.4,224.5 127.4,242.1 				"/>
			</g>
			<g>
				<path style="fill:#FFFFFF;" d="M39.4,213.1H22.9l-9.4,12.2v123.3h10.6l0.1-12.6V281h12.5v67.5h10.7V225.3L39.4,213.1z
					 M36.8,269.7H24.3v-45.1h12.5V269.7z"/>
			</g>
		</g>
	</g>
</g>
</svg>
