<!-- Embeded svg sprite reference -->
<svg display="none" xmlns="http://www.w3.org/2000/svg">
    <symbol id="star-in-circle" fill="#ff385c" viewBox="0 0 510.184 510.184" xmlns="http://www.w3.org/2000/svg">
        <path d="M310.709 182.099l-53.836-109.03-53.773 109.03-120.292 17.457 87.041 84.863-20.557 119.819 107.581-56.552 107.645 56.552-20.552-119.819 87.03-84.863z"/>
        <path d="M255.092 0C114.435 0 .005 114.43.005 255.098c0 140.662 114.43 255.085 255.086 255.085 140.651 0 255.086-114.424 255.086-255.085C510.19 114.43 395.766 0 255.092 0zm0 486.27c-127.467 0-231.171-103.704-231.171-231.171 0-127.479 103.704-231.184 231.171-231.184S486.263 127.62 486.263 255.099c.012 127.466-103.692 231.171-231.171 231.171z"/>
    </symbol>

    <symbol id="close-circle" viewBox="0 0 340.8 340.8" fill="#ffffff99" xmlns="http://www.w3.org/2000/svg">
        <path d="M170.4 0C76.4 0 0 76.4 0 170.4s76.4 170.4 170.4 170.4 170.4-76.4 170.4-170.4S264.4 0 170.4 0zm0 323.6c-84.4 0-153.2-68.8-153.2-153.2S86 17.2 170.4 17.2 323.6 86 323.6 170.4s-68.8 153.2-153.2 153.2z"/>
        <path d="M182.4 169.6l50-50c3.2-3.2 3.2-8.8 0-12-3.2-3.2-8.8-3.2-12 0l-50 50-50-50c-3.2-3.2-8.8-3.2-12 0-3.2 3.2-3.2 8.8 0 12l50 50-50 49.6c-3.2 3.2-3.2 8.8 0 12 1.6 1.6 4 2.4 6 2.4s4.4-.8 6-2.4l50-50 50 50c1.6 1.6 4 2.4 6 2.4s4.4-.8 6-2.4c3.2-3.2 3.2-8.8 0-12l-50-49.6z"/>
    </symbol>

    <symbol id="close" viewBox="0 0 311 311.077" fill="#fff" xmlns="http://www.w3.org/2000/svg">
        <path d="M16.035 311.078c-4.097 0-8.195-1.558-11.308-4.695-6.25-6.25-6.25-16.383 0-22.633L283.789 4.687c6.25-6.25 16.383-6.25 22.633 0s6.25 16.383 0 22.637L27.363 306.383a16.045 16.045 0 0 1-11.328 4.695zm0 0"/>
        <path d="M295.117 311.078a15.879 15.879 0 0 1-11.308-4.695L4.727 27.324c-6.25-6.254-6.25-16.386 0-22.636s16.382-6.25 22.636 0L306.422 283.75c6.25 6.25 6.25 16.383 0 22.633-3.137 3.117-7.23 4.695-11.305 4.695zm0 0"/>
    </symbol>

    <symbol id="search" viewBox="0 0 512.005 512.005" fill="fff6" color="#fff6" xmlns="http://www.w3.org/2000/svg">
        <path d="M505.749 475.587l-145.6-145.6c28.203-34.837 45.184-79.104 45.184-127.317C405.333 90.926 314.41.003 202.666.003S0 90.925 0 202.669s90.923 202.667 202.667 202.667c48.213 0 92.48-16.981 127.317-45.184l145.6 145.6c4.16 4.16 9.621 6.251 15.083 6.251s10.923-2.091 15.083-6.251c8.341-8.341 8.341-21.824-.001-30.165zM202.667 362.669c-88.235 0-160-71.765-160-160s71.765-160 160-160 160 71.765 160 160-71.766 160-160 160z" fill="#fff6"/>
    </symbol>

    <symbol id="search-grey" viewBox="0 0 512.005 512.005" fill="a0aec0" color="#a0aec0" xmlns="http://www.w3.org/2000/svg">
        <path d="M505.749 475.587l-145.6-145.6c28.203-34.837 45.184-79.104 45.184-127.317C405.333 90.926 314.41.003 202.666.003S0 90.925 0 202.669s90.923 202.667 202.667 202.667c48.213 0 92.48-16.981 127.317-45.184l145.6 145.6c4.16 4.16 9.621 6.251 15.083 6.251s10.923-2.091 15.083-6.251c8.341-8.341 8.341-21.824-.001-30.165zM202.667 362.669c-88.235 0-160-71.765-160-160s71.765-160 160-160 160 71.765 160 160-71.766 160-160 160z" fill="#a0aec0"/>
    </symbol>

    <symbol id="cup" fill="none" viewBox="0 0 32 32" xmlns="http://www.w3.org/2000/svg">
        <path d="M23.893 29.046c-.388-.438-.848-.805-1.345-.901v-.01c0-.771-.625-1.397-1.397-1.397H10.883c-.771 0-1.397.626-1.397 1.397v.01c-.497.096-.957.463-1.344.9-.64.722-.126 1.862.839 1.862h14.073c.965 0 1.479-1.14.839-1.861z" fill="#E2A042"/>
        <path d="M30.849 5.377a3.898 3.898 0 0 0-2.997-1.4h-1.508V2.16H5.69v1.817H4.147c-1.16 0-2.252.51-2.996 1.4A3.898 3.898 0 0 0 .3 8.573l1.207 6.746a3.904 3.904 0 0 0 3.847 3.219h4.816c.137 0 .273-.008.408-.022a44.57 44.57 0 0 0 1.967 2.083c.503.502.954.917 1.372 1.243a34.792 34.792 0 0 1-.392 1.712l-.182.688c-.065.227-.121.45-.19.667-.072.216-.17.425-.28.623-.11.198-.225.385-.32.558-.086.153-.164.31-.233.472-.028.07-.057.136-.076.197a.86.86 0 0 0-.036.167.496.496 0 0 0 .054.317c.389.578 1.016 1.071 1.843 1.387 2.063.786 4.583.165 5.629-1.387 0 0 .077-.115.054-.317a.86.86 0 0 0-.036-.167c-.02-.06-.048-.127-.076-.197a4.632 4.632 0 0 0-.234-.472c-.094-.173-.21-.36-.32-.558a3.762 3.762 0 0 1-.28-.623c-.068-.216-.124-.44-.19-.667l-.18-.688a34.811 34.811 0 0 1-.388-1.687c.427-.33.888-.753 1.403-1.268.69-.69 1.349-1.38 1.965-2.08.125.012.25.019.376.019h4.816a3.904 3.904 0 0 0 3.846-3.219l1.21-6.746a3.898 3.898 0 0 0-.85-3.196zM5.355 15.876a1.244 1.244 0 0 1-1.226-1.026L2.922 8.104c-.09-.498.13-.852.27-1.019.14-.166.45-.446.955-.446h1.545c.04 3.76 1.117 6.66 2.836 9.237H5.355zm23.723-7.772l-1.207 6.746a1.243 1.243 0 0 1-1.226 1.026h-3.139c1.719-2.576 2.797-5.477 2.837-9.236h1.51c.505 0 .815.279.954.446.14.166.36.52.271 1.018z" fill="#FFB636"/>
        <path d="M8.336 30.705c.842.842 4.113 1.17 7.68 1.17 3.568 0 7.212-.68 7.784-1.252.573-.573-3.191-.588-3.191-.588l-12.273.67z" fill="#E2A042"/>
        <path d="M16 3.92c5.697 0 10.316-.787 10.316-1.759C26.316 1.19 21.697.402 16 .402c-5.697 0-10.316.788-10.316 1.76 0 .97 4.619 1.758 10.316 1.758zm6.907 8.044a1.031 1.031 0 0 1-.963-1.4c.764-1.992.693-3.144.617-4.363a1.031 1.031 0 0 1 2.058-.128c.1 1.597.108 2.996-.749 5.229-.157.41-.548.662-.963.662z" fill="#FFD469"/>
    </symbol>

    <symbol id="facebook" viewBox="0 0 512 512" xmlns="http://www.w3.org/2000/svg">
        <path d="M512 256c0 141.387-114.613 256-256 256S0 397.387 0 256 114.613 0 256 0s256 114.613 256 256zm0 0" fill="#4a7aff"/>
        <path d="M267.234 511.738C403.406 505.86 512 393.618 512 256c0-.996-.027-1.988-.04-2.984L334.263 75.312l-190 198.594 105.566 105.567-48.676 66.183zm0 0" fill="#0053bf"/>
        <path d="M334.262 75.313v57.968s-66.555-9.66-66.555 33.278v42.937h60.113l-7.511 65.48h-52.602v170.68h-66.555v-170.68l-56.894-1.074v-64.406h55.82v-49.379s-3.683-73.457 68.703-86.949c30.059-5.605 65.48 2.145 65.48 2.145zm0 0" fill="#fff"/>
        <path d="M334.262 133.281V75.312s-35.422-7.75-65.48-2.144a101.494 101.494 0 0 0-13.137 3.348v369.14h12.062v-170.68h52.598l7.515-65.48h-60.113V166.56c0-42.937 66.555-33.278 66.555-33.278zm0 0" fill="#dce1eb"/>
    </symbol>

    <symbol id="google" viewBox="0 0 512 512" xmlns="http://www.w3.org/2000/svg">
        <path d="M113.47 309.408L95.648 375.94l-65.139 1.378C11.042 341.211 0 299.9 0 256c0-42.451 10.324-82.483 28.624-117.732h.014L86.63 148.9l25.404 57.644c-5.317 15.501-8.215 32.141-8.215 49.456.002 18.792 3.406 36.797 9.651 53.408z" fill="#fbbb00"/>
        <path d="M507.527 208.176C510.467 223.662 512 239.655 512 256c0 18.328-1.927 36.206-5.598 53.451-12.462 58.683-45.025 109.925-90.134 146.187l-.014-.014-73.044-3.727-10.338-64.535c29.932-17.554 53.324-45.025 65.646-77.911h-136.89V208.176h245.899z" fill="#518ef8"/>
        <path d="M416.253 455.624l.014.014C372.396 490.901 316.666 512 256 512c-97.491 0-182.252-54.491-225.491-134.681l82.961-67.91c21.619 57.698 77.278 98.771 142.53 98.771 28.047 0 54.323-7.582 76.87-20.818l83.383 68.262z" fill="#28b446"/>
        <path d="M419.404 58.936l-82.933 67.896C313.136 112.246 285.552 103.82 256 103.82c-66.729 0-123.429 42.957-143.965 102.724l-83.397-68.276h-.014C71.23 56.123 157.06 0 256 0c62.115 0 119.068 22.126 163.404 58.936z" fill="#f14336"/>
    </symbol>

    <symbol id="linkedin" viewBox="0 -11 512 511" xmlns="http://www.w3.org/2000/svg">
        <g fill="#069">
            <path d="M6.488 159.684h109.754V489.89H6.488zm0 0M62.09.5C24.547.5 0 25.152 0 57.555c0 31.687 23.816 57.043 60.648 57.043h.715c38.278 0 62.098-25.356 62.098-57.043C122.746 25.152 99.64.5 62.09.5zm0 0M385.645 151.934c-58.235 0-84.329 32.004-98.915 54.507v-46.757H176.973V489.89h109.754V305.488c0-9.87.714-19.726 3.613-26.785 7.933-19.715 25.992-40.137 56.312-40.137 39.715 0 55.602 30.282 55.602 74.672v176.653H512V300.555c0-101.426-54.148-148.621-126.355-148.621zm0 0"/>
        </g>
    </symbol>

    <symbol id="figma" class="asvg" viewBox="0 0 38 57" xmlns="http://www.w3.org/2000/svg">
        <path d="M19 28.5a9.5 9.5 0 0 1 9.5-9.5 9.5 9.5 0 0 1 9.5 9.5 9.5 9.5 0 0 1-9.5 9.5 9.5 9.5 0 0 1-9.5-9.5z" fill="#1abcfe"/>
        <path d="M0 47.5A9.5 9.5 0 0 1 9.5 38H19v9.5A9.5 9.5 0 0 1 9.5 57 9.5 9.5 0 0 1 0 47.5z" fill="#0acf83"/>
        <path d="M19 0v19h9.5A9.5 9.5 0 0 0 38 9.5 9.5 9.5 0 0 0 28.5 0H19z" fill="#ff7262"/>
        <path d="M0 9.5A9.5 9.5 0 0 0 9.5 19H19V0H9.5A9.5 9.5 0 0 0 0 9.5z" fill="#f24e1e"/>
        <path d="M0 28.5A9.5 9.5 0 0 0 9.5 38H19V19H9.5A9.5 9.5 0 0 0 0 28.5z" fill="#a259ff"/>
    </symbol>

    <symbol id="netflix" viewBox="0 0 512 512" xmlns="http://www.w3.org/2000/svg">
        <g fill="#d32f2f">
            <path d="M304 0h96v512h-96zM112 0h96v512h-96z"/>
        </g>
        <path fill="#f44336" d="M400 512h-96L112 0h96z"/>
    </symbol>

    <symbol id="heart-red" viewBox="0 0 477.534 477.534" fill="#fc0d42" xmlns="http://www.w3.org/2000/svg">
        <path d="M438.482 58.61a130.815 130.815 0 0 0-95.573-41.711 130.968 130.968 0 0 0-95.676 41.694l-8.431 8.909-8.431-8.909C181.284 5.762 98.662 2.728 45.832 51.815a130.901 130.901 0 0 0-6.778 6.778c-52.072 56.166-52.072 142.968 0 199.134l187.358 197.581c6.482 6.843 17.284 7.136 24.127.654.224-.212.442-.43.654-.654l187.29-197.581c52.068-56.16 52.068-142.957-.001-199.117zm-24.695 175.616h-.017L238.802 418.768 63.818 234.226c-39.78-42.916-39.78-109.233 0-152.149 36.125-39.154 97.152-41.609 136.306-5.484a96.482 96.482 0 0 1 5.484 5.484l20.804 21.948c6.856 6.812 17.925 6.812 24.781 0l20.804-21.931c36.125-39.154 97.152-41.609 136.306-5.484a96.482 96.482 0 0 1 5.484 5.484c40.126 42.984 40.42 109.422 0 152.132z"/>
    </symbol>

    <symbol id="heart" viewBox="0 0 477.534 477.534" fill="#fff9" xmlns="http://www.w3.org/2000/svg">
        <path d="M438.482 58.61a130.815 130.815 0 0 0-95.573-41.711 130.968 130.968 0 0 0-95.676 41.694l-8.431 8.909-8.431-8.909C181.284 5.762 98.662 2.728 45.832 51.815a130.901 130.901 0 0 0-6.778 6.778c-52.072 56.166-52.072 142.968 0 199.134l187.358 197.581c6.482 6.843 17.284 7.136 24.127.654.224-.212.442-.43.654-.654l187.29-197.581c52.068-56.16 52.068-142.957-.001-199.117zm-24.695 175.616h-.017L238.802 418.768 63.818 234.226c-39.78-42.916-39.78-109.233 0-152.149 36.125-39.154 97.152-41.609 136.306-5.484a96.482 96.482 0 0 1 5.484 5.484l20.804 21.948c6.856 6.812 17.925 6.812 24.781 0l20.804-21.931c36.125-39.154 97.152-41.609 136.306-5.484a96.482 96.482 0 0 1 5.484 5.484c40.126 42.984 40.42 109.422 0 152.132z"/>
    </symbol>

    <symbol id="star-fill" viewBox="0 -10 511.987 511" xmlns="http://www.w3.org/2000/svg">
        <path d="M510.652 185.902a27.158 27.158 0 0 0-23.425-18.71l-147.774-13.419-58.433-136.77C276.71 6.98 266.898.494 255.996.494s-20.715 6.487-25.023 16.534l-58.434 136.746-147.797 13.418A27.208 27.208 0 0 0 1.34 185.902c-3.371 10.368-.258 21.739 7.957 28.907l111.7 97.96-32.938 145.09c-2.41 10.668 1.73 21.696 10.582 28.094 4.757 3.438 10.324 5.188 15.937 5.188 4.84 0 9.64-1.305 13.95-3.883l127.468-76.184 127.422 76.184c9.324 5.61 21.078 5.097 29.91-1.305a27.223 27.223 0 0 0 10.582-28.094l-32.937-145.09 111.699-97.94a27.224 27.224 0 0 0 7.98-28.927zm0 0" fill="#ffc107"/>
    </symbol>

    <symbol id="star-empty" viewBox="0 -10 511.987 511" xmlns="http://www.w3.org/2000/svg">
        <path d="M114.594 491.14c-5.61 0-11.18-1.75-15.934-5.187a27.223 27.223 0 0 1-10.582-28.094l32.938-145.09L9.312 214.81a27.188 27.188 0 0 1-7.976-28.907 27.208 27.208 0 0 1 23.402-18.71l147.797-13.419L230.97 17.027C235.277 6.98 245.089.492 255.992.492s20.715 6.488 25.024 16.512l58.433 136.77 147.774 13.417c10.882.98 20.054 8.344 23.425 18.711 3.372 10.368.254 21.739-7.957 28.907L390.988 312.75l32.938 145.086c2.414 10.668-1.727 21.7-10.578 28.098-8.832 6.398-20.61 6.89-29.91 1.3l-127.446-76.16-127.445 76.203c-4.309 2.559-9.11 3.864-13.953 3.864zm141.398-112.874c4.844 0 9.64 1.3 13.953 3.859l120.278 71.938-31.086-136.942a27.21 27.21 0 0 1 8.62-26.516l105.473-92.5-139.543-12.671a27.18 27.18 0 0 1-22.613-16.493L255.992 39.895 200.844 168.96c-3.883 9.195-12.524 15.512-22.547 16.43L38.734 198.062l105.47 92.5c7.554 6.614 10.858 16.77 8.62 26.54l-31.062 136.937 120.277-71.914c4.309-2.559 9.11-3.86 13.953-3.86zm-84.586-221.848s0 .023-.023.043zm169.13-.063l.023.043c0-.023 0-.023-.024-.043zm0 0"/>
    </symbol>

    <symbol id="star-half" viewBox="0 0 24 24" xmlns="http://www.w3.org/2000/svg">
        <path d="M23.79 9.87l-5.36 5.49 1.26 7.77c.111.62-.562 1.074-1.1.78L12 20.26V.03c.28 0 .56.13.68.4l3.31 7.05 7.37 1.12c.616.11.843.835.43 1.27z" fill="#eceff1"/>
        <path d="M12 .03v20.23l-6.59 3.65c-.529.297-1.212-.153-1.1-.78l1.26-7.77L.21 9.87A.757.757 0 0 1 .64 8.6l7.37-1.12L11.32.43c.12-.27.4-.4.68-.4z" fill="#ffc107"/>
    </symbol>

    <symbol id="arrow-top" fill="#fe8d00" viewBox="0 0 337.085 337.086" xmlns="http://www.w3.org/2000/svg">
        <path d="M168.54 0C75.619 0 .012 75.609.012 168.543c0 92.93 75.606 168.543 168.528 168.543 92.933 0 168.534-75.613 168.534-168.543C337.074 75.609 261.473 0 168.54 0zm102.865 224.327a12.31 12.31 0 0 1-17.432 0L168.54 138.9l-85.424 85.427c-4.816 4.815-12.631 4.815-17.447 0-4.819-4.815-4.819-12.622 0-17.438l94.152-94.141c4.822-4.815 12.613-4.815 17.426 0l94.152 94.141c4.822 4.816 4.822 12.623.006 17.438z"/>
    </symbol>

    <symbol id="smile1" viewBox="0 0 511.976 511.976" xmlns="http://www.w3.org/2000/svg">
        <path d="M436.999 74.977C388.649 26.627 324.365 0 255.988 0S123.327 26.627 74.977 74.977 0 187.611 0 255.988s26.627 132.661 74.977 181.011 112.634 74.977 181.011 74.977 132.661-26.627 181.011-74.977 74.977-112.634 74.977-181.011-26.628-132.661-74.977-181.011z" fill="#ffda2d"/>
        <path d="M436.999 74.977C388.649 26.627 324.365 0 255.988 0v511.976c68.377 0 132.661-26.627 181.011-74.977s74.977-112.634 74.977-181.011-26.628-132.661-74.977-181.011z" fill="#febf01"/>
        <path d="M255.988 419.663c-47.248 0-90.952-21.461-119.904-58.88l23.727-18.358c23.229 30.021 58.284 47.239 96.177 47.239 37.894 0 72.949-17.218 96.177-47.239l23.728 18.358c-28.953 37.419-72.657 58.88-119.905 58.88z" fill="#606060"/>
        <path d="M284.668 171.522H227.33l-175.761-12.04 11.941 81.036c2.569 17.43 11.328 33.37 24.663 44.884s30.381 17.855 48 17.855h32.195c40.499 0 73.447-32.948 73.447-73.447v-28.289h28.368v28.289c0 40.499 32.948 73.447 73.447 73.447h32.195c17.618 0 34.665-6.341 48-17.855s22.094-27.454 24.663-44.884l11.941-81.036zM375.893 360.782l-23.728-18.358c-23.228 30.021-58.283 47.239-96.177 47.239v30c47.248 0 90.952-21.461 119.905-58.881z" fill="#404040"/>
        <path d="M284.668 171.522h-28.68v30h14.195v28.289c0 40.499 32.948 73.447 73.447 73.447h32.195c17.618 0 34.665-6.341 48-17.855s22.094-27.454 24.663-44.884l11.941-81.036z" fill="#242424"/>
    </symbol>

    <symbol id="smile2" viewBox="0 0 512 512" xmlns="http://www.w3.org/2000/svg">
        <circle cx="256" cy="256" r="256" fill="#ffd93b"/>
        <path d="M512 256c0 141.44-114.64 256-256 256-80.48 0-152.32-37.12-199.28-95.28 43.92 35.52 99.84 56.72 160.72 56.72 141.36 0 256-114.56 256-256 0-60.88-21.2-116.8-56.72-160.72C474.8 103.68 512 175.52 512 256z" fill="#f4c534"/>
        <path d="M388.368 309.264C410.864 315.424 374.816 435.04 256 435.92c-118.816-.88-154.864-120.496-132.368-126.656C141.616 300.4 189.856 349.52 256 349.52c67.056-.016 114.384-49.12 132.368-40.256z" fill="#3e4347"/>
        <path d="M173.344 256.784c-1.392 1.712-3.728 2.128-5.648 1.072-14.4-7.568-72.32-40-77.872-70.192-3.52-19.088 9.072-37.44 28.16-40.96 13.76-2.56 27.088 3.312 34.88 14.08 3.312-12.8 13.76-23.04 27.52-25.488 19.088-3.52 37.328 9.072 40.848 28.16 5.552 30.176-37.12 81.056-47.888 93.328z" fill="#e24b4b"/>
        <path d="M179.424 249.632c-2.448 2.992-4.592 5.44-6.08 7.152-1.392 1.712-3.728 2.128-5.648 1.072-14.4-7.568-72.32-40-77.872-70.192-3.2-17.168 6.608-33.712 22.512-39.36-8.112 7.888-12.272 19.632-10.032 31.568 5.44 29.76 61.648 61.648 77.12 69.76z" fill="#d03f3f"/>
        <ellipse transform="scale(-1) rotate(68.567 238.819 -288.445)" cx="196.632" cy="162.802" rx="13.871" ry="9.344" fill="#fff" opacity=".2"/>
        <path d="M332.752 256.784c1.392 1.712 3.728 2.128 5.648 1.072 14.4-7.568 72.32-40 77.872-70.192 3.52-19.088-9.072-37.44-28.16-40.96-13.76-2.56-27.088 3.312-34.88 14.08-3.312-12.8-13.76-23.04-27.52-25.488-19.088-3.52-37.328 9.072-40.848 28.16-5.552 30.176 37.104 81.056 47.888 93.328z" fill="#e24b4b"/>
        <path d="M326.672 249.632c2.448 2.992 4.592 5.44 6.08 7.152 1.392 1.712 3.728 2.128 5.648 1.072 14.4-7.568 72.32-40 77.872-70.192 3.2-17.168-6.608-33.712-22.512-39.36 8.112 7.888 12.272 19.632 10.032 31.568-5.44 29.76-61.664 61.648-77.12 69.76z" fill="#d03f3f"/>
        <ellipse transform="scale(-1) rotate(21.433 860.374 -1635.033)" cx="309.42" cy="162.82" rx="9.344" ry="13.871" fill="#fff" opacity=".2"/>
        <path d="M256 435.92c22.944-.176 42.768-4.8 59.712-12.144a62.755 62.755 0 0 0-19.808-28.496c-7.28-6-17.28-7.088-26.272-4.176-5.184 1.632-11.008 2.64-17.456 2.64-5.008 0-9.632-.64-13.904-1.632-9.728-2.448-19.904.448-26.992 7.552-6.704 6.704-11.84 14.96-14.96 24.144 16.944 7.328 36.752 11.952 59.68 12.112z" fill="#e24b4b"/>
    </symbol>

    <symbol id="smile3" viewBox="0 0 512 512" xmlns="http://www.w3.org/2000/svg">
        <circle cx="256" cy="256" r="256" fill="#ffca28"/>
        <g fill="#6d4c41">
        <path d="M399.68 208.32c-8.832 0-16-7.168-16-16 0-17.632-14.336-32-32-32s-32 14.368-32 32c0 8.832-7.168 16-16 16s-16-7.168-16-16c0-35.296 28.704-64 64-64s64 28.704 64 64c0 8.864-7.168 16-16 16zM207.68 208.32c-8.832 0-16-7.168-16-16 0-17.632-14.368-32-32-32s-32 14.368-32 32c0 8.832-7.168 16-16 16s-16-7.168-16-16c0-35.296 28.704-64 64-64s64 28.704 64 64c0 8.864-7.168 16-16 16z"/>
        </g>
        <path d="M437.696 294.688c-3.04-4-7.744-6.368-12.736-6.368H86.4a15.898 15.898 0 0 0-12.736 6.336 15.97 15.97 0 0 0-2.688 14.016C94.112 390.88 170.08 448.32 255.648 448.32s161.536-57.44 184.672-139.648a15.859 15.859 0 0 0-2.624-13.984z" fill="#fafafa"/>
    </symbol>

    <symbol id="arrow-down" fill="#ff6d00" viewBox="0 0 451.847 451.847" xmlns="http://www.w3.org/2000/svg">
        <path d="M225.923 354.706c-8.098 0-16.195-3.092-22.369-9.263L9.27 151.157c-12.359-12.359-12.359-32.397 0-44.751 12.354-12.354 32.388-12.354 44.748 0l171.905 171.915 171.906-171.909c12.359-12.354 32.391-12.354 44.744 0 12.365 12.354 12.365 32.392 0 44.751L248.292 345.449c-6.177 6.172-14.274 9.257-22.369 9.257z"/>
    </symbol>

    <symbol id="close" fill="none" viewBox="0 0 26 26" xmlns="http://www.w3.org/2000/svg">
        <path d="M2.627 1.01a1.776 1.776 0 0 0-1.215 3.06l9.469 9.33-9.328 9.472a1.777 1.777 0 1 0 2.53 2.493l9.328-9.472 9.469 9.331a1.776 1.776 0 1 0 2.492-2.53l-9.47-9.331 9.329-9.472a1.777 1.777 0 1 0-2.53-2.493l-9.328 9.472-9.47-9.331a1.776 1.776 0 0 0-1.276-.528z" fill="url(#a)"/>
    </symbol>

    <symbol id="home" fill="none" viewBox="0 0 16 16" xmlns="http://www.w3.org/2000/svg">
        <g clip-path="url(#a)" fill="#fff">
            <path d="M8.162 3.467a.234.234 0 0 0-.324 0L2.444 8.62a.235.235 0 0 0-.072.17v4.835a.938.938 0 0 0 .937.938h2.815a.469.469 0 0 0 .469-.47V10.11a.234.234 0 0 1 .234-.235h2.344a.234.234 0 0 1 .234.235v3.984a.469.469 0 0 0 .469.469h2.814a.938.938 0 0 0 .938-.938V8.79a.236.236 0 0 0-.073-.17L8.162 3.468z"/>
            <path d="M14.882 7.653l-2.191-2.097V2.375a.469.469 0 0 0-.469-.469h-1.406a.469.469 0 0 0-.469.469v.938L8.65 1.69A.912.912 0 0 0 8 1.438a.91.91 0 0 0-.649.252L1.12 7.652a.478.478 0 0 0-.04.656.469.469 0 0 0 .68.03L7.839 2.53a.234.234 0 0 1 .324 0l6.08 5.809a.469.469 0 0 0 .661-.013.48.48 0 0 0-.022-.673z"/>
        </g>
    </symbol>

    <symbol id="arrow-right" viewBox="0 0 492.004 492.004" fill="#fc720d" xmlns="http://www.w3.org/2000/svg">
        <path d="M382.678 226.804L163.73 7.86C158.666 2.792 151.906 0 144.698 0s-13.968 2.792-19.032 7.86l-16.124 16.12c-10.492 10.504-10.492 27.576 0 38.064L293.398 245.9l-184.06 184.06c-5.064 5.068-7.86 11.824-7.86 19.028 0 7.212 2.796 13.968 7.86 19.04l16.124 16.116c5.068 5.068 11.824 7.86 19.032 7.86s13.968-2.792 19.032-7.86L382.678 265c5.076-5.084 7.864-11.872 7.848-19.088.016-7.244-2.772-14.028-7.848-19.108z"/>
    </symbol>

    <symbol id="arrow-right-fill" viewBox="0 0 512 512" fill="#fff" xmlns="http://www.w3.org/2000/svg">
        <path d="M256 0C114.837 0 0 114.837 0 256s114.837 256 256 256 256-114.837 256-256S397.163 0 256 0zm79.083 271.083L228.416 377.749A21.275 21.275 0 0 1 213.333 384a21.277 21.277 0 0 1-15.083-6.251c-8.341-8.341-8.341-21.824 0-30.165L289.835 256l-91.584-91.584c-8.341-8.341-8.341-21.824 0-30.165s21.824-8.341 30.165 0l106.667 106.667c8.341 8.341 8.341 21.823 0 30.165z"/>
    </symbol>

    <symbol id="graduation" viewBox="0 0 349.2 349.2" fill="#f6f6f6" xmlns="http://www.w3.org/2000/svg">
        <path d="M337.6 114.25l-139.2-68c-12-6-32.4-6-44.4 0l-142.4 68c-10 4.8-11.6 11.6-11.6 15.2 0 3.6 1.6 10 11.6 15.2l11.6 5.6v64c-7.2 2.8-12.4 10-12.4 18s5.2 15.2 12 18l-18 57.2h50.4l-18-57.2c7.2-2.8 12-10 12-18 0-8.4-5.2-15.2-12.4-18v-57.2l21.2 10.4v83.2c0 1.2.4 2.4 1.2 3.6 2 2.4 39.2 53.2 115.2 53.2s113.2-51.2 114.8-53.2c.8-1.2 1.2-2.4 1.2-3.6v-82.8l47.2-23.2c10-4.8 11.6-11.6 11.6-15.2-.4-3.6-1.6-10.4-11.6-15.2zm-60 134.4c-6.4 8-40.8 46.4-103.2 46.4-62.4 0-96.8-38.4-103.2-46.4v-75.6l82.8 39.6c6 2.8 14 4.4 22 4.4 8.4 0 16.4-1.6 22.4-4.8l79.2-38.8v75.2zm54.4-115.2l-48 23.6c-2 0-3.6.8-4.4 2.4l-86.8 42c-8.4 4.4-24.8 4.4-33.6 0l-106.8-51.2 122.8-14.4c3.6-.4 6-3.6 5.6-6.8-.4-3.6-3.6-6-6.8-5.6l-142.4 16.8-14.4-6.8c-3.6-1.6-4.4-3.6-4.4-3.6 0-.4.8-2 4.4-3.6l142.4-68.4c4.4-2 10.4-3.2 16.4-3.2 6.4 0 12.8 1.2 16.8 3.2l139.2 68c3.6 1.6 4.4 3.2 4.4 4 0 0-1.2 2-4.4 3.6z"/>
    </symbol>

    <symbol id="pdf" viewBox="0 0 309.267 309.267" xmlns="http://www.w3.org/2000/svg">
        <path d="M38.658 0h164.23l87.049 86.711v203.227c0 10.679-8.659 19.329-19.329 19.329H38.658c-10.67 0-19.329-8.65-19.329-19.329V19.329C19.329 8.65 27.989 0 38.658 0z" fill="#e2574c"/>
        <path d="M289.658 86.981h-67.372c-10.67 0-19.329-8.659-19.329-19.329V.193l86.701 86.788z" fill="#b53629"/>
        <path d="M217.434 146.544c3.238 0 4.823-2.822 4.823-5.557 0-2.832-1.653-5.567-4.823-5.567h-18.44c-3.605 0-5.615 2.986-5.615 6.282v45.317c0 4.04 2.3 6.282 5.412 6.282 3.093 0 5.403-2.242 5.403-6.282v-12.438h11.153c3.46 0 5.19-2.832 5.19-5.644 0-2.754-1.73-5.49-5.19-5.49h-11.153v-16.903h13.24zm-62.327-11.124h-13.492c-3.663 0-6.263 2.513-6.263 6.243v45.395c0 4.629 3.74 6.079 6.417 6.079h14.159c16.758 0 27.824-11.027 27.824-28.047-.009-17.995-10.427-29.67-28.645-29.67zm.648 46.526h-8.225v-35.334h7.413c11.221 0 16.101 7.529 16.101 17.918 0 9.723-4.794 17.416-15.289 17.416zM106.33 135.42H92.964c-3.779 0-5.886 2.493-5.886 6.282v45.317c0 4.04 2.416 6.282 5.663 6.282s5.663-2.242 5.663-6.282v-13.231h8.379c10.341 0 18.875-7.326 18.875-19.107.001-11.529-8.233-19.261-19.328-19.261zm-.222 27.738h-7.703v-17.097h7.703c4.755 0 7.78 3.711 7.78 8.553-.01 4.833-3.025 8.544-7.78 8.544z" fill="#fff"/>
    </symbol>

    <symbol id="excel" viewBox="0 0 309.267 309.267" xmlns="http://www.w3.org/2000/svg">
        <path d="M38.658 0h164.23l87.049 86.711v203.227c0 10.679-8.659 19.329-19.329 19.329H38.658c-10.67 0-19.329-8.65-19.329-19.329V19.329C19.329 8.65 27.989 0 38.658 0z" fill="#3db39e"/>
        <path d="M289.658 86.981h-67.372c-10.67 0-19.329-8.659-19.329-19.329V.193l86.701 86.788z" fill="#2f8a78"/>
        <path d="M77.317 125.64v125.64H231.95V125.64H77.317zm115.975 9.664v19.329h-19.329v-19.329h19.329zm-57.988 48.323h-19.329v-19.32h19.329v19.32zm9.665-19.319h19.329v19.32h-19.329v-19.32zm-9.665 28.994v19.32h-19.329v-19.32h19.329zm9.665 0h19.329v19.32h-19.329v-19.32zm28.994 0h19.329v19.32h-19.329v-19.32zm0-9.675v-19.32h19.329v19.32h-19.329zm-9.665-48.323v19.329h-19.329v-19.329h19.329zm-28.994 0v19.329h-19.329v-19.329h19.329zm-48.323 0h19.329v19.329H86.981v-19.329zm0 29.004h19.329v19.32H86.981v-19.32zm0 28.994h19.329v19.32H86.981v-19.32zm0 48.323v-19.339h19.329v19.339H86.981zm28.994 0v-19.339h19.329v19.339h-19.329zm28.994 0v-19.339h19.329v19.339h-19.329zm28.994 0v-19.339h19.329v19.339h-19.329zm48.323 0h-19.329v-19.339h19.329v19.339zm0-29.004h-19.329v-19.32h19.329v19.32zm0-28.994h-19.329v-19.32h19.329v19.32zm0-28.993h-19.329v-19.329h19.329v19.329z" fill="#8bd1c5"/>
    </symbol>

</svg>

