<svg width="32" height="34" viewBox="0 0 32 34" xmlns="http://www.w3.org/2000/svg">
    <path d="M22.19 33.13c-2.046 0-4.293-.326-6.856-2.687a9.326 9.326 0 0 1-.945-1.013c-.673.388-1.355.726-2.049.966-2.035.705-4.274-.135-4.991-1.872a.485.485 0 1 1 .897-.37c.525 1.27 2.219 1.864 3.777 1.325 1.354-.469 2.727-1.389 4.056-2.279.355-.238.713-.477 1.073-.71-.551-1.19-.594-2.561-.13-3.849a3.625 3.625 0 0 1-.686-.47c-.62-.549-.574-1.007-.493-1.232.127-.348.627-.735 1.167-1.067-.956-.862-1.984-2.248-2.8-3.817-.413.35-.82.651-1.206.89.472.423.894.893.956 1.26.04.235.002.694-.706 1.122-.223.135-.49.253-.765.34.237 1.431-.025 2.75-.755 3.773.726.879 1.25 1.834 1.767 2.774.133.24.27.489.407.731a.485.485 0 1 1-.845.479c-.14-.248-.278-.5-.412-.743-.482-.877-.953-1.732-1.575-2.51-.931.826-2.225 1.273-3.724 1.273-1.377 0-2.615-.474-3.314-1.267-.45-.51-.645-1.11-.565-1.736.08-.634.451-1.176 1.043-1.526.924-.546 2.311-.587 3.534-.104 1.292.51 2.25 1.163 3.007 1.895.49-.786.654-1.782.476-2.873a3.645 3.645 0 0 1-.862-.068c-.81-.17-.997-.591-1.037-.827-.062-.366.182-.949.487-1.504-1.411-.31-3.227-1.15-4.86-2.298C3.583 13.958.679 11.45.077 7.902a5.599 5.599 0 0 1 2.267-5.47.485.485 0 0 1 .562.79A4.623 4.623 0 0 0 1.034 7.74c.543 3.2 3.23 5.51 4.785 6.602 1.934 1.36 3.93 2.134 5.091 2.241a2.042 2.042 0 0 0 .548-.009 2.068 2.068 0 0 0 .501-.165c.496-.223 1.13-.651 1.815-1.258-.862-1.929-1.946-5.333-.783-8.53a5.528 5.528 0 0 1 2.878-3.14 5.573 5.573 0 0 1 1.792-.495 4.594 4.594 0 0 0-7.985.676.485.485 0 0 1-.793.134 4.594 4.594 0 0 0-4.088-1.354.485.485 0 0 1-.162-.957A5.561 5.561 0 0 1 9.1 2.676 5.561 5.561 0 0 1 12.927.08a5.57 5.57 0 0 1 5.863 2.908c.45.047.898.15 1.334.309a5.562 5.562 0 0 1 3.295 3.244 5.562 5.562 0 0 1 4.61-.367.485.485 0 1 1-.332.912 4.594 4.594 0 0 0-4.266.596.485.485 0 0 1-.755-.275 4.594 4.594 0 0 0-4.253-3.473 4.573 4.573 0 0 0-2.144.428 4.564 4.564 0 0 0-2.376 2.593c-.988 2.715-.15 5.657.618 7.482.414-.427.835-.91 1.243-1.447 1.063-1.395 2.83-4.192 2.717-7.262a.485.485 0 0 1 .97-.035c.123 3.371-1.773 6.387-2.915 7.885-.5.655-1.038 1.264-1.583 1.798.99 1.985 2.257 3.515 3.165 4.149a2.048 2.048 0 0 0 .48.263 2.055 2.055 0 0 0 .536.107c1.16.103 3.265-.299 5.413-1.288 1.725-.794 4.785-2.582 5.895-5.633.601-1.65.195-3.53-1.034-4.786a.485.485 0 0 1 .694-.679 5.597 5.597 0 0 1 1.252 5.797c-1.23 3.382-4.539 5.326-6.401 6.183-1.813.834-3.75 1.333-5.194 1.384.2.602.335 1.22.208 1.568-.082.225-.343.605-1.17.627a3.625 3.625 0 0 1-.864-.09c-.36 1.005-.344 2.066.05 2.993 1.037-.62 2.091-1.131 3.156-1.335 1.465-.28 2.683-.069 3.43.597.532.473.795 1.151.74 1.909-.047.628-.358 1.177-.9 1.588-.842.64-2.15.858-3.499.584-1.383-.28-2.516-.975-3.264-1.988-.339.22-.681.45-1.027.681-.46.308-.923.619-1.392.915.243.294.496.56.765.808 2.188 2.017 4.06 2.43 6.198 2.43 4.021 0 5.576-2.244 5.591-2.267a.485.485 0 1 1 .806.542c-.074.11-1.864 2.696-6.397 2.696zm-3.718-6.323c.607.787 1.518 1.33 2.63 1.555 1.064.216 2.107.06 2.72-.406.319-.24.493-.539.518-.886.034-.456-.11-.841-.416-1.113-.517-.46-1.441-.591-2.602-.369-.94.18-1.884.639-2.85 1.22zM6.296 21.445c-.488 0-.942.102-1.286.305-.338.2-.531.474-.575.814-.044.345.068.672.331.971.51.58 1.5.939 2.586.939 1.252 0 2.32-.36 3.075-1.025-.688-.676-1.555-1.27-2.734-1.735a3.852 3.852 0 0 0-1.397-.27zm11.523.492c.511.185 1.04.185 1.23.124-.011-.223-.153-.736-.343-1.248a2.623 2.623 0 0 1-.44-.114 2.633 2.633 0 0 1-.41-.196c-.476.27-.914.572-1.067.735.107.17.512.51 1.022.696l.008.003zm-7.215-3.206c.177.094.698.19 1.233.1l.008-.002c.535-.092.995-.353 1.13-.5-.12-.189-.497-.565-.916-.916-.153.055-.3.095-.438.118-.139.024-.29.035-.454.034-.28.47-.511.948-.563 1.166z" fill="#FFF" fill-rule="nonzero"/>
</svg>
