<svg width="30" height="30" viewBox="0 0 30 30" xmlns="http://www.w3.org/2000/svg">
    <g fill="#FFF" fill-rule="nonzero">
        <path d="M14.583 9.51a4.544 4.544 0 0 0-6.418 0 4.51 4.51 0 0 0-1.33 3.21 4.51 4.51 0 0 0 1.33 3.21l6.584 6.584a.453.453 0 0 0 .642 0l6.585-6.585a4.51 4.51 0 0 0 1.33-3.209 4.51 4.51 0 0 0-1.33-3.21 4.544 4.544 0 0 0-6.42 0l-.486.487-.487-.487zm1.616.643a3.635 3.635 0 0 1 5.135 0 3.607 3.607 0 0 1 1.063 2.567c0 .97-.377 1.882-1.063 2.567l-6.264 6.264-6.263-6.264a3.607 3.607 0 0 1-1.064-2.567c0-.97.378-1.881 1.064-2.567a3.62 3.62 0 0 1 2.567-1.062c.93 0 1.86.354 2.567 1.062l.808.808a.454.454 0 0 0 .642 0l.808-.808z"/>
        <path d="m14.727 12.307-.735 2.81-.522-1.314a.454.454 0 0 0-.773-.12l-.885 1.075h-1.077a.454.454 0 0 0 0 .908h1.29c.137 0 .265-.06.352-.165l.533-.648.748 1.885a.454.454 0 0 0 .862-.053l.585-2.236.648 3.267a.454.454 0 0 0 .863.09l.915-2.14h1.593a.454.454 0 1 0 0-.908h-1.893a.454.454 0 0 0-.417.275l-.456 1.065-.746-3.764a.454.454 0 0 0-.885-.027zM.595 7.603c.25 0 .454-.203.454-.454v-4.83c0-.778.632-1.41 1.41-1.41h4.83a.454.454 0 1 0 0-.909H2.46A2.321 2.321 0 0 0 .141 2.319v4.83c0 .25.203.454.454.454zM27.681 0h-4.83a.454.454 0 1 0 0 .908h4.83c.778 0 1.41.633 1.41 1.41v4.83a.454.454 0 1 0 .909 0v-4.83A2.321 2.321 0 0 0 27.681 0zM7.29 28.951H2.46c-.779 0-1.411-.632-1.411-1.41v-4.83a.454.454 0 1 0-.908 0v4.83a2.321 2.321 0 0 0 2.318 2.319h4.83a.454.454 0 1 0 0-.909zM29.546 22.257a.454.454 0 0 0-.454.454v4.83c0 .778-.633 1.41-1.41 1.41h-4.83a.454.454 0 1 0 0 .909h4.83A2.322 2.322 0 0 0 30 27.54v-4.83a.454.454 0 0 0-.454-.453zM12.554 27.05C6.925 25.952 2.8 21.086 2.591 15.383H3.8a.454.454 0 1 0 0-.908H.454a.454.454 0 1 0 0 .908h1.228c.21 6.136 4.644 11.377 10.699 12.557a.454.454 0 0 0 .174-.891zM23.511 25.034a13.271 13.271 0 0 0 4.48-7.831.454.454 0 0 0-.894-.155 12.352 12.352 0 0 1-11.713 10.22v-1.21a.454.454 0 1 0-.908 0v3.347a.454.454 0 1 0 .908 0v-1.228a13.258 13.258 0 0 0 8.127-3.143zM16.918 2.741a12.353 12.353 0 0 1 10.35 11.735h-1.21a.454.454 0 1 0 0 .908h3.347a.454.454 0 1 0 0-.908h-1.228A13.255 13.255 0 0 0 17.063 1.844a.453.453 0 1 0-.145.897zM6.206 4.948a13.247 13.247 0 0 0-4.399 8.096.454.454 0 1 0 .9.128 12.34 12.34 0 0 1 4.097-7.54 12.335 12.335 0 0 1 7.672-3.04v1.21a.454.454 0 1 0 .908 0V.453a.454.454 0 1 0-.908 0v1.228a13.243 13.243 0 0 0-8.27 3.266z"/>
    </g>
</svg>
