<svg width="34" height="34" viewBox="0 0 34 34" xmlns="http://www.w3.org/2000/svg">
    <g fill="#FFF" fill-rule="nonzero">
        <path d="M13.613 11H3.386A2.399 2.399 0 0 1 1 8.594V2.406A2.399 2.399 0 0 1 3.386 0h10.227A2.399 2.399 0 0 1 16 2.406v6.188A2.399 2.399 0 0 1 13.613 11zM3.386 2.062a.343.343 0 0 0-.34.344v6.188c0 .19.152.344.34.344h10.227a.343.343 0 0 0 .342-.344V2.406a.343.343 0 0 0-.342-.344H3.386zM13.613 33H3.386A2.383 2.383 0 0 1 1 30.625v-14.25C1 15.065 2.07 14 3.386 14h10.227A2.383 2.383 0 0 1 16 16.375v14.25C16 31.935 14.93 33 13.613 33zM3.386 16.036a.34.34 0 0 0-.34.34v14.25c0 .186.152.338.34.338h10.227a.34.34 0 0 0 .342-.339v-14.25a.34.34 0 0 0-.342-.34H3.386zM31.614 33H21.387A2.399 2.399 0 0 1 19 30.594v-6.188A2.399 2.399 0 0 1 21.387 22h10.227A2.399 2.399 0 0 1 34 24.406v6.188A2.399 2.399 0 0 1 31.614 33zm-10.227-8.938a.343.343 0 0 0-.342.344v6.188c0 .19.153.344.342.344h10.227c.188 0 .34-.155.34-.344v-6.188a.343.343 0 0 0-.34-.344H21.387zM31.614 19H21.387A2.383 2.383 0 0 1 19 16.625V2.375C19 1.065 20.07 0 21.387 0h10.227A2.383 2.383 0 0 1 34 2.375v14.25C34 17.935 32.93 19 31.614 19zM21.387 2.036a.34.34 0 0 0-.342.339v14.25c0 .187.153.34.342.34h10.227a.34.34 0 0 0 .34-.34V2.375a.34.34 0 0 0-.34-.34H21.387z"/>
    </g>
</svg>
