<svg width="29" height="35" viewBox="0 0 29 35" xmlns="http://www.w3.org/2000/svg">
    <g fill="#FFF" fill-rule="nonzero">
        <path d="M25.403 10.357a1.5 1.5 0 0 0-1.5 1.5v16.785a2.88 2.88 0 0 1-3.015 2.713H8.918a2.88 2.88 0 0 1-3.015-2.713V11.857a1.5 1.5 0 0 0-3 0v16.785a5.877 5.877 0 0 0 6.015 5.713h11.97a5.877 5.877 0 0 0 6.015-5.713V11.857a1.5 1.5 0 0 0-1.5-1.5zM26.403 5.157h-6v-3.2c0-.884-.671-1.6-1.5-1.6h-9c-.828 0-1.5.716-1.5 1.6v3.2h-6c-.828 0-1.5.716-1.5 1.6 0 .883.672 1.6 1.5 1.6h24c.829 0 1.5-.717 1.5-1.6 0-.884-.671-1.6-1.5-1.6zm-15 0v-1.6h6v1.6h-6z"/>
        <path d="M12.903 24.801V13.912c0-.859-.671-1.555-1.5-1.555-.828 0-1.5.696-1.5 1.555v10.89c0 .858.672 1.555 1.5 1.555.829 0 1.5-.697 1.5-1.556zM18.903 24.801V13.912c0-.859-.671-1.555-1.5-1.555-.828 0-1.5.696-1.5 1.555v10.89c0 .858.672 1.555 1.5 1.555.829 0 1.5-.697 1.5-1.556z"/>
    </g>
</svg>
