<svg width="44" height="25" viewBox="0 0 44 25" xmlns="http://www.w3.org/2000/svg">
    <g fill="#00CF1D" fill-rule="nonzero">
        <path d="M10.984 1.306c1.137.484 2.17 1.25 3.054 2.252l-.025.032C12.952 4.97 12.39 6.698 12.39 8.582c0 2.712 1.628 5.687 4.837 8.846a38.669 38.669 0 0 0 3.266 2.843 52.9 52.9 0 0 1-4.049 2.864 3.542 3.542 0 0 1-3.798 0c-1.61-1.027-4.7-3.134-7.315-5.707-3.21-3.16-4.838-6.134-4.838-8.846 0-1.884.561-3.61 1.622-4.992a7.439 7.439 0 0 1 8.868-2.284z"/>
        <path d="M41.878 3.59a7.394 7.394 0 0 0-8.835-2.284c-1.357.584-2.567 1.568-3.549 2.875-.981-1.31-2.192-2.295-3.549-2.875A7.394 7.394 0 0 0 17.11 3.59c-1.057 1.381-1.616 3.108-1.616 4.992 0 2.712 1.622 5.687 4.82 8.846 2.606 2.573 5.685 4.68 7.288 5.707a3.518 3.518 0 0 0 3.784 0c1.602-1.027 4.683-3.134 7.289-5.707 3.198-3.158 4.82-6.134 4.82-8.846 0-1.884-.56-3.61-1.617-4.992z"/>
    </g>
</svg>
