<svg width="37" height="37" viewBox="0 0 37 37" xmlns="http://www.w3.org/2000/svg">
    <g fill="#FFF" fill-rule="nonzero">
        <path d="M18.5 0a2.282 2.282 0 0 0-2.28 2.28 2.282 2.282 0 0 0 2.28 2.28 2.282 2.282 0 0 0 2.28-2.28A2.282 2.282 0 0 0 18.5 0zm0 3.476c-.66 0-1.196-.537-1.196-1.196a1.197 1.197 0 0 1 2.392 0c0 .66-.537 1.196-1.196 1.196zM2.28 16.22A2.282 2.282 0 0 0 0 18.5a2.282 2.282 0 0 0 2.28 2.28 2.282 2.282 0 0 0 2.28-2.28 2.282 2.282 0 0 0-2.28-2.28zm0 3.476a1.197 1.197 0 0 1 0-2.392 1.197 1.197 0 0 1 0 2.392zM34.72 16.22a2.282 2.282 0 0 0-2.28 2.28 2.282 2.282 0 0 0 2.28 2.28A2.282 2.282 0 0 0 37 18.5a2.282 2.282 0 0 0-2.28-2.28zm0 3.476a1.197 1.197 0 0 1 0-2.392 1.197 1.197 0 0 1 0 2.392zM18.5 32.44a2.282 2.282 0 0 0-2.28 2.28A2.282 2.282 0 0 0 18.5 37a2.282 2.282 0 0 0 2.28-2.28 2.282 2.282 0 0 0-2.28-2.28zm0 3.476a1.197 1.197 0 0 1 0-2.392 1.197 1.197 0 0 1 0 2.392zM34.734 14.309A16.748 16.748 0 0 0 22.69 2.266a.542.542 0 1 0-.27 1.05 15.664 15.664 0 0 1 11.264 11.263.542.542 0 0 0 1.05-.27zM14.97 2.656a.542.542 0 0 0-.66-.39A16.748 16.748 0 0 0 2.266 14.31a.542.542 0 1 0 1.05.27A15.664 15.664 0 0 1 14.58 3.316a.542.542 0 0 0 .39-.66zM14.58 33.684A15.664 15.664 0 0 1 3.316 22.422a.542.542 0 0 0-1.05.27A16.748 16.748 0 0 0 14.31 34.734a.541.541 0 1 0 .27-1.05zM34.344 22.03a.542.542 0 0 0-.66.39A15.664 15.664 0 0 1 22.42 33.684a.542.542 0 0 0 .27 1.05A16.748 16.748 0 0 0 34.734 22.69a.542.542 0 0 0-.39-.66zM16.209 11.644l-.507-1.014a.542.542 0 1 0-.97.485l.507 1.014a.542.542 0 1 0 .97-.485zM21.317 12.29l-.264-.24a.542.542 0 0 0-.73.8l.264.242a.54.54 0 0 0 .766-.035.542.542 0 0 0-.036-.766z"/>
        <path d="M25.82 11.142c-4.05-4.05-10.642-4.05-14.693 0a10.382 10.382 0 0 0-.81 13.775.542.542 0 0 0 .852-.672 9.26 9.26 0 0 1-1.99-5.35l.902 1.064c.221.26.503.472.815.61l2.217.982-.636.934c-.273.4-.222.94.12 1.282l1.258 1.257v1.54a9.352 9.352 0 0 1-1.137-.77.542.542 0 0 0-.672.851 10.345 10.345 0 0 0 6.428 2.233c2.671 0 5.331-1.027 7.347-3.042 4.05-4.051 4.05-10.643 0-14.694zm-6.155-1.878-.136.837a.617.617 0 0 1-.208.37l-1.225 1.047-.8-2.256a9.387 9.387 0 0 1 2.369.002zm-8.842 9.398-.158.31-1.42-1.673a9.275 9.275 0 0 1 3.813-6.378.612.612 0 0 1-.036.768l-.833.949c-.223.253-.32.59-.264.924.055.333.255.62.548.789l.45.257a1.121 1.121 0 0 0 1.597-.553l.064-.158a.033.033 0 0 1 .028-.023c.02-.004.029.006.034.012l.785.838a.037.037 0 0 1 0 .05l-2.762 3.192a.037.037 0 0 1-.025.013l-.914.075c-.39.032-.73.26-.908.608zm4.116 8.434V24.8a.542.542 0 0 0-.16-.383l-1.371-1.373.93-1.366a.037.037 0 0 1 .051-.01l2.53 1.57a.616.616 0 0 1 .231.792l-1.587 3.297a9.229 9.229 0 0 1-.624-.231zm1.691.513 1.497-3.109a1.698 1.698 0 0 0-.635-2.182l-2.53-1.572a1.118 1.118 0 0 0-1.095-.05l-2.339-1.033.26-.508a.037.037 0 0 1 .03-.02l.915-.076c.294-.024.563-.16.756-.383l2.762-3.193a1.119 1.119 0 0 0-.029-1.5l-.785-.838a1.117 1.117 0 0 0-1.024-.336c-.379.07-.69.326-.835.683l-.063.158a.035.035 0 0 1-.022.02.035.035 0 0 1-.031-.002l-.45-.258a.034.034 0 0 1-.018-.026.034.034 0 0 1 .009-.03l.833-.949c.31-.352.457-.802.417-1.27a1.69 1.69 0 0 0-.277-.794 9.259 9.259 0 0 1 2.241-.878l.977 2.755a.837.837 0 0 0 1.333.357l1.498-1.28c.306-.261.51-.624.574-1.021l.131-.81a9.244 9.244 0 0 1 3.009 1.351l-.69 1.006a.542.542 0 0 0 .894.613l.653-.953a9.406 9.406 0 0 1 .81.8l-3.004 1.607a1.115 1.115 0 0 0-.59.913l-.055.81-.396.688a.542.542 0 0 0 .38.804 1.692 1.692 0 0 0-.712.637l-.834 1.342a1.71 1.71 0 0 0-.07 1.671l.644 1.26c.223.438.699.677 1.183.597l1.011-.169a.035.035 0 0 1 .029.007c.013.01.014.021.015.025l.465 3.867a9.313 9.313 0 0 1-6.842 1.27zm6-11.341 1.326-.208a.617.617 0 0 1 .417.083l1.092.669.252.694-1.319-.105a.038.038 0 0 1-.026-.014l-.19-.245a1.12 1.12 0 0 0-1.165-.4l-.799.205a.541.541 0 0 0 .083-.107l.329-.572zm2.424 8.801c-.187.187-.38.364-.579.532l-.392-3.257a1.127 1.127 0 0 0-.441-.764 1.126 1.126 0 0 0-.857-.208l-1.011.168a.037.037 0 0 1-.04-.02l-.643-1.26a.62.62 0 0 1 .025-.606l.833-1.342a.614.614 0 0 1 .37-.272l.967-.248a.037.037 0 0 1 .04.014l.189.244c.192.25.483.406.797.431l1.881.151 1.301 2.159a9.249 9.249 0 0 1-2.44 4.278zm1.95-7.19-.414-1.144.208-.095a.542.542 0 1 0-.448-.987l-.402.183-1.01-.617a1.703 1.703 0 0 0-1.15-.23l-.912.143.017-.258c.001-.013.008-.024.02-.03l3.18-1.7a9.238 9.238 0 0 1 1.665 5.984l-.753-1.249z"/>
    </g>
</svg>
