<svg width="32" height="36" viewBox="0 0 32 36" xmlns="http://www.w3.org/2000/svg">
    <path d="M31.508 4.744 30 3.416l1.508-1.327a.74.74 0 0 0 .204-.822.739.739 0 0 0-.696-.482h-6.241V.517a.517.517 0 1 0-1.035 0v6.976L19.492 9.8a1.637 1.637 0 0 0-.168-.543l-.599-1.169a1.636 1.636 0 0 0-2.2-.71l-.462.237c-.39.2-.677.538-.811.954-.134.415-.098.858.1 1.247l.6 1.168c.14.273.346.49.589.64-.318.428-.469.954-.624 1.501l-.111.395a.517.517 0 1 0 .995.281l.112-.394c.226-.8.365-1.227.809-1.468l.794-.432.098-.05c.033-.016.063-.035.094-.054l5.663-3.075a2.19 2.19 0 0 1-1.044 1.758l-3.683 2.237a.196.196 0 0 0-.012.008l-1.146.696a.518.518 0 0 0 .494.907l-.87 2.63-.636.26-1.728.709.498-1.761a.518.518 0 0 0-.996-.282l-.787 2.783a.497.497 0 0 0-.018.113l-.206 3.784c-.007.144.024.417-.043.558l-2.287 4.812h-1.663c-.974 0-1.766.793-1.766 1.766V30.8a1.752 1.752 0 0 0-.731-.159H3.525c-.974 0-1.766.792-1.766 1.766v1.853H.517a.517.517 0 1 0 0 1.034h30.498a.517.517 0 1 0 0-1.034H29.67V20.926c0-.974-.792-1.766-1.766-1.766h-3.13v-9.024a3.226 3.226 0 0 0 .52-2.764.516.516 0 0 0-.52-.38v-.944h6.242a.739.739 0 0 0 .696-.482.74.74 0 0 0-.204-.822zM16.237 8.886a.596.596 0 0 1 .297-.35l.463-.237a.6.6 0 0 1 .808.26l.598 1.17c.14.273.05.603-.199.77l-.168.092-.356.182a.6.6 0 0 1-.808-.26l-.598-1.169a.596.596 0 0 1-.037-.458zM15.197 27.7a1.756 1.756 0 0 0-.568-.152l.568-.754v.906zm2.456-4.168c.25-.298.318-.647.373-.927.014-.067.27-1.461.27-1.461s.241.15.266.161c.018.008.03.025.032.045l.281 2.86h-1.733l.511-.678zm3.06-2.855-.438 3.531h-.36l-.291-2.959a1.09 1.09 0 0 0-.61-.875l-.52-.33.347-1.92s1.46 1.734 1.494 1.778c.302.393.405.55.377.775zm-5.588 2.503c.104-.315.153-.635.145-.96l.188-3.451 2.392-.98-.435 2.408a.25.25 0 0 0-.003.02l-.36 1.992c-.047.206-.088.519-.216.689L13.34 27.54h-.288l2.073-4.36zM2.794 32.406c0-.403.328-.731.73-.731h4.223c.403 0 .731.328.731.73v1.854H2.794v-1.853zm6.719 0v-3.1c0-.403.328-.731.731-.731h4.222c.403 0 .731.328.731.731v4.953H9.513v-1.853zm19.123-11.48v13.333H22.95v-3.102a.517.517 0 1 0-1.035 0v3.102h-5.684v-8.283c0-.403.328-.73.731-.73h4.222c.403 0 .731.327.731.73v2.593a.517.517 0 1 0 1.035 0v-7.643c0-.403.328-.731.731-.731h4.221c.404 0 .733.328.733.73zm-4.954-1.766c-.973 0-1.765.792-1.765 1.766v3.444a1.75 1.75 0 0 0-.6-.154l.422-3.412c.083-.665-.257-1.106-.584-1.532-.035-.046-2.046-2.433-2.046-2.433l1.234-3.73 3.397-2.063v8.114h-.058zm1.093-14.147V1.82h5.472l-1.179 1.038a.745.745 0 0 0 0 1.117l1.18 1.038h-5.473z" fill="#FFF" fill-rule="nonzero"/>
</svg>
