<svg width="33" height="33" viewBox="0 0 33 33" xmlns="http://www.w3.org/2000/svg">
    <g fill="#FFF" fill-rule="nonzero">
        <path d="M28.242 32.319H4.808a4.283 4.283 0 0 1-4.283-4.283V4.602A4.283 4.283 0 0 1 4.808.319h23.434a4.283 4.283 0 0 1 4.283 4.283v23.434a4.283 4.283 0 0 1-4.283 4.283zM4.808 2.78a1.822 1.822 0 0 0-1.822 1.822v23.434c0 1.006.816 1.821 1.822 1.821h23.434a1.822 1.822 0 0 0 1.821-1.821V4.602a1.822 1.822 0 0 0-1.821-1.822H4.808z"/>
        <path d="M1.752 27.319a1.249 1.249 0 0 1-.935-.426 1.225 1.225 0 0 1 .148-1.734l8.4-7.068a3.288 3.288 0 0 1 4.43.18l3.988 3.975a.822.822 0 0 0 1.066 0l3.873-2.797a3.289 3.289 0 0 1 4.003 0l5.333 4.237a1.232 1.232 0 0 1-.318 2.114 1.24 1.24 0 0 1-1.224-.183l-5.317-4.254a.822.822 0 0 0-1 0l-3.873 2.994a3.289 3.289 0 0 1-4.282-.294l-3.988-4.058a.822.822 0 0 0-1.099 0L2.54 27.04c-.22.186-.5.285-.788.279zM21.025 15.319a4.5 4.5 0 1 1 0-9 4.5 4.5 0 0 1 0 9zm0-6.546a2.045 2.045 0 1 0 0 4.091 2.045 2.045 0 0 0 0-4.09z"/>
    </g>
</svg>
