<svg width="32" height="33" viewBox="0 0 32 33" xmlns="http://www.w3.org/2000/svg">
    <g fill="#FFF" fill-rule="nonzero">
        <path d="m21.903 23.448-2.363-2.363a.486.486 0 0 0-.687.687l1.847 1.847-5.929 2.432A11.35 11.35 0 0 0 8.156 15.01l1.145-2.79 7.771 7.77a.486.486 0 0 0 .687-.686l-8.287-8.287a.49.49 0 0 0-.793.16L.036 32.25c-.16.39.242.794.633.634l21.075-8.643a.49.49 0 0 0 .159-.793zM1.375 31.545l1.6-3.903c.556.853.891 1.822.981 2.844l-2.581 1.059zm7.247-2.973-3.73 1.53a7.148 7.148 0 0 0-1.482-3.518l2.38-5.802a10.288 10.288 0 0 1 2.832 7.79zm5.14-2.108-4.15 1.703.002-.232c0-3.093-1.215-5.973-3.425-8.129l1.599-3.896a10.38 10.38 0 0 1 5.974 10.554zM19.313 11.949a.486.486 0 0 0-.687 0l-2.59 2.59c-.299.299-.08.829.344.829a.484.484 0 0 0 .343-.143l2.59-2.59a.485.485 0 0 0 0-.686zM24.048 1.354a4.634 4.634 0 0 0-6.547 0 3.597 3.597 0 0 0 0 5.081 3.597 3.597 0 0 0 5.082 0 2.56 2.56 0 0 0 0-3.616 2.56 2.56 0 0 0-3.617 0 .486.486 0 0 0 .687.686 1.588 1.588 0 0 1 2.243 0 1.588 1.588 0 0 1 0 2.244 2.625 2.625 0 0 1-3.708 0 2.625 2.625 0 0 1 0-3.709 3.662 3.662 0 0 1 5.173 0 3.662 3.662 0 0 1 0 5.174L20.594 9.98a.49.49 0 0 0-.026.659.49.49 0 0 0 .713.028L24.048 7.9a4.634 4.634 0 0 0 0-6.546zM30.012 11.498a4.599 4.599 0 0 0-3.273-1.356 4.599 4.599 0 0 0-3.273 1.356l-5.128 5.128a.49.49 0 0 0 0 .686.49.49 0 0 0 .687 0l5.127-5.127a3.634 3.634 0 0 1 2.587-1.071c.977 0 1.896.38 2.587 1.071.69.69 1.07 1.61 1.07 2.587 0 .977-.38 1.895-1.07 2.586a2.605 2.605 0 0 1-1.855.768c-.7 0-1.358-.273-1.854-.768a2.625 2.625 0 0 1 0-3.708c.3-.3.698-.465 1.122-.465.424 0 .822.165 1.122.465.3.3.464.698.464 1.122 0 .423-.165.822-.464 1.121a.486.486 0 0 0 .686.687 2.54 2.54 0 0 0 .75-1.808c0-.683-.267-1.326-.75-1.809a2.54 2.54 0 0 0-1.808-.749 2.54 2.54 0 0 0-1.808.75 3.597 3.597 0 0 0 0 5.081 3.57 3.57 0 0 0 2.54 1.053 3.57 3.57 0 0 0 2.541-1.053 4.599 4.599 0 0 0 1.356-3.273 4.6 4.6 0 0 0-1.356-3.274zM13.146 5.194l-.76-1.034.421-1.212a.49.49 0 0 0-.61-.62l-1.219.402-1.022-.775a.49.49 0 0 0-.78.39l.008 1.283-1.053.732a.49.49 0 0 0 .13.862l1.221.39.372 1.228a.49.49 0 0 0 .859.142l.749-1.041 1.282.026a.49.49 0 0 0 .402-.773zm-1.92-.23a.487.487 0 0 0-.404.202l-.324.45-.16-.53a.486.486 0 0 0-.317-.322l-.528-.169.455-.316a.486.486 0 0 0 .208-.401l-.003-.555.442.335a.486.486 0 0 0 .446.074l.526-.174-.182.524a.485.485 0 0 0 .067.447l.328.446-.554-.01zM31.792 5.407l-.76-1.034.422-1.212a.49.49 0 0 0-.612-.62l-1.218.402-1.022-.775a.49.49 0 0 0-.779.39l.007 1.283-1.053.733a.49.49 0 0 0 .13.86l1.221.39.372 1.229a.49.49 0 0 0 .86.142l.748-1.041 1.282.026a.49.49 0 0 0 .402-.773zm-1.92-.23a.485.485 0 0 0-.404.203l-.323.45-.16-.53a.486.486 0 0 0-.318-.323l-.528-.168.455-.317a.486.486 0 0 0 .208-.401l-.003-.554.442.335a.486.486 0 0 0 .446.074l.526-.174-.182.523a.485.485 0 0 0 .068.447l.328.447-.555-.011zM29.72 26.125l-.76-1.034.422-1.212a.49.49 0 0 0-.611-.62l-1.218.402-1.023-.775a.49.49 0 0 0-.779.39l.007 1.283-1.053.733a.49.49 0 0 0 .13.86l1.222.39.371 1.229a.49.49 0 0 0 .86.143l.748-1.042 1.283.026a.49.49 0 0 0 .401-.773zm-1.92-.23a.486.486 0 0 0-.404.203l-.323.45-.16-.53a.486.486 0 0 0-.318-.323l-.528-.168.455-.317a.486.486 0 0 0 .208-.401l-.002-.554.441.335a.485.485 0 0 0 .446.074l.526-.174-.182.523a.485.485 0 0 0 .068.447l.328.447-.554-.011zM15.428 8.168a.486.486 0 0 0-.686 0l-1.036 1.036c-.3.3-.082.83.343.83a.484.484 0 0 0 .343-.143l1.036-1.036a.486.486 0 0 0 0-.687zM31.226 7.91a.486.486 0 0 0-.687 0l-1.036 1.035a.49.49 0 0 0-.026.66.49.49 0 0 0 .713.027l1.036-1.036a.485.485 0 0 0 0-.687z"/>
    </g>
</svg>
