<svg width="32" height="33" viewBox="0 0 32 33" xmlns="http://www.w3.org/2000/svg">
    <g fill="#FFF" fill-rule="nonzero">
        <path d="M22.365 19.879c6.454-4.632 5.973-14.368-.849-18.374A10.987 10.987 0 0 0 8.62 2.817a.475.475 0 1 0 .635.706 10.044 10.044 0 0 1 8.581-2.398c-.044.518-.404 1.079-.798 1.453-.774.736-3.978.101-5.142 2.646-.163.355-.387.985-.589 1.3-.102-.356-.185-.915-.634-1.295-.27-.228-.558-.329-.857-.3-.538.053-.911.52-1.135.8-.471.59-.261 1.12-.108 1.507.142.358.264.667.036 1.182-.218.495.235 1.034.384 1.211.61.727 2.143 1.932 3.077 1.7 2.28-.567 2.925 3.148 4.443 3.535 1.136.29 2.23.947 2.091 1.546-.424 1.843-2.173 1.663-3.27 2.15-.604.267-1.697 1.027-2.431 1.957-.58-.185-1.136-.42-1.665-.702.071-.167.15-.342.238-.526.794-1.667.741-2.535-1.137-4.085-.9-.743-.59-1.748-.17-2.46a1.008 1.008 0 0 0-.301-1.34C9.19 10.94 7.206 9.752 6.28 8.385a9.921 9.921 0 0 1 1.727-3.512.475.475 0 0 0-.754-.58c-2.655 3.46-3.134 8.436-.592 12.499 3.349 5.354 10.462 6.756 15.597 3.163a.437.437 0 0 0 .107-.076zm-.137-1.087c-.082-.734.583-1.835 1.184-2.828.786-1.301 1.53-2.53.938-3.41-.56-.832-1.386-.496-2.353-1.295-.567-.468-1.095-1.06-.784-2.68.087-.46.53-1.032 1.243-1.61.465-.378.64-1.016.433-1.588-.083-.228-.086-.376-.064-.433.341-.875-1.103-1.346-1.228-2.274 5.6 3.799 5.875 11.926.63 16.118zM6.035 9.602c1.083 1.2 2.57 2.09 3.297 2.586a.055.055 0 0 1 .018.073c-.846 1.436-.706 2.776.384 3.676 1.803 1.488 1.375 1.808.68 3.388-3.087-2.05-4.929-5.787-4.38-9.722zm7.89 11.183c.59-.63 1.352-1.161 1.795-1.357.905-.401 3.245-.35 3.81-2.805.297-1.285-1.184-2.272-2.782-2.68-.872-.222-1.937-4.273-4.906-3.536-.06.014-.354-.021-.904-.363-.766-.477-1.323-1.091-1.424-1.324.337-.835.1-1.433-.057-1.833-.146-.368-.149-.42-.033-.565.086-.107.346-.433.484-.447.032-.004.089.026.151.08.392.331.192 1.463 1.057 1.628.926.175 1.294-1.199 1.644-1.964.947-2.07 3.781-1.257 4.933-2.352.598-.57.976-1.26 1.073-1.92.67.195 1.31.455 1.915.776-.29 1.384.91 2.179 1.223 2.588-.076.281-.046.615.09.993a.47.47 0 0 1-.137.526c-.628.51-1.411 1.3-1.578 2.17-.39 2.035.344 2.958 1.112 3.592 1.787 1.475 3.317-.01 1.207 3.48-.791 1.31-1.675 2.773-1.197 3.914a9.993 9.993 0 0 1-7.476 1.4zM7.539 27.526a.476.476 0 0 0 .77-.556c-.624-.865-3.387-2.309-4.863-3.764-.572-.564-1.574-2.514-1.837-3.335l-.65-2.337c-.074-.27.318-.442.455-.14.757 1.613.822 1.942 1.201 2.43a9.584 9.584 0 0 0 3.277 2.686l2.024 2.034a.476.476 0 0 0 .674-.67l-2.043-2.053-.805-1.251c-.135-.28.225-.552.464-.305 2.762 2.904 2.63 2.816 2.773 2.886l2.964 1.44c1.619.786 1.503 2.5 1.542 2.622a.475.475 0 1 0 .946-.087l-.042-.455a3.654 3.654 0 0 0-2.03-2.935l-2.887-1.403-2.58-2.725a1.248 1.248 0 0 0-1.55-.203c-.44.276-.649.79-.555 1.276a8.603 8.603 0 0 1-1.421-1.44c-.273-.35-.282-.51-1.087-2.24a1.208 1.208 0 0 0-1.35-.69 1.189 1.189 0 0 0-.885 1.477C.918 20.936.64 19.961.7 20.15c.3.945 1.373 3.036 2.08 3.733.804.793 1.933 1.564 2.93 2.245.413.282 1.586 1.062 1.829 1.398zM31.12 16.345a1.186 1.186 0 0 0-1.461.634c-.813 1.748-.822 1.91-1.096 2.263a8.595 8.595 0 0 1-1.42 1.44c.093-.487-.116-1.001-.557-1.277a1.25 1.25 0 0 0-1.553.206l-2.576 2.722-2.887 1.403c-2.154 1.046-2.03 3.277-2.074 3.41a.475.475 0 1 0 .946.087c.038-.122-.078-1.855 1.543-2.642 3.103-1.52 2.99-1.423 3.103-1.541l2.631-2.782c.245-.252.602.024.467.302l-.805 1.25-2.042 2.054c-.298.3-.082.81.337.81.36 0 .376-.246 2.36-2.175 1.847-.92 3.263-2.443 3.665-3.326l.823-1.811c.119-.261.526-.13.44.184l-.644 2.315c-.263.821-1.266 2.77-1.838 3.335-1.471 1.451-4.23 2.893-4.858 3.758a.476.476 0 0 0 .768.559c.478-.656 3.247-2.15 4.757-3.64.707-.697 1.78-2.788 2.08-3.733.06-.19-.186.669.65-2.34a1.2 1.2 0 0 0-.76-1.465zM14.285 28.617H8.466c-.607 0-1.102.495-1.102 1.102v1.615c0 .608.495 1.102 1.102 1.102h5.82c.607 0 1.1-.494 1.1-1.102V29.72c0-.607-.493-1.102-1.1-1.102zm.152 2.717a.151.151 0 0 1-.152.151H8.466a.151.151 0 0 1-.151-.15v-1.616c0-.083.068-.151.151-.151h5.82c.083 0 .15.068.15.151v1.615zM23.463 28.617h-5.82c-.607 0-1.101.495-1.101 1.102v1.615c0 .608.494 1.102 1.101 1.102h5.82c.607 0 1.101-.494 1.101-1.102V29.72c0-.607-.494-1.102-1.101-1.102zm.15 2.717a.151.151 0 0 1-.15.151h-5.82a.151.151 0 0 1-.15-.15v-1.616c0-.083.067-.151.15-.151h5.82c.083 0 .15.068.15.151v1.615z"/>
    </g>
</svg>
