<svg width="43" height="17" viewBox="0 0 43 17" xmlns="http://www.w3.org/2000/svg">
    <g fill="#FFC002" fill-rule="nonzero">
        <path d="M1.178 2.102A5.415 5.415 0 0 1 7.62.448c.99.42 1.872 1.134 2.588 2.082.236-.312.49-.6.761-.859-.128.137-.251.28-.367.431-.771 1-1.179 2.25-1.179 3.615 0 1.964 1.183 4.118 3.514 6.406.64.627 1.32 1.216 1.983 1.75a38.166 38.166 0 0 1-3.332 2.382 2.58 2.58 0 0 1-2.76 0c-1.168-.743-3.414-2.27-5.314-4.132C1.182 9.835 0 7.68 0 5.717c0-1.364.407-2.614 1.178-3.615z"/>
        <path d="M19.044.448c.825.351 1.576.906 2.218 1.63l-.018.024c-.77 1-1.178 2.25-1.178 3.615 0 1.964 1.182 4.118 3.514 6.406a28.066 28.066 0 0 0 2.373 2.06 38.537 38.537 0 0 1-2.942 2.072 2.58 2.58 0 0 1-2.76 0c-1.168-.743-3.413-2.27-5.314-4.132-2.331-2.288-3.514-4.442-3.514-6.406 0-1.364.408-2.614 1.179-3.615A5.415 5.415 0 0 1 19.044.448z"/>
        <path d="M41.304 2.102A5.415 5.415 0 0 0 34.862.448c-.99.423-1.872 1.136-2.588 2.082-.716-.948-1.598-1.661-2.588-2.082a5.415 5.415 0 0 0-6.442 1.654c-.77 1-1.178 2.25-1.178 3.615 0 1.964 1.182 4.118 3.514 6.406 1.9 1.863 4.145 3.389 5.314 4.132a2.58 2.58 0 0 0 2.76 0c1.167-.743 3.414-2.27 5.314-4.132 2.331-2.287 3.514-4.442 3.514-6.406 0-1.364-.408-2.614-1.178-3.615z"/>
    </g>
</svg>
