<svg width="60" height="25" viewBox="0 0 60 25" xmlns="http://www.w3.org/2000/svg">
    <g fill="#FFC002" fill-rule="nonzero">
        <path d="M1.658 4.001c2.118-2.82 5.865-3.806 9.068-2.383 1.392.606 2.634 1.633 3.642 3 .333-.45.691-.864 1.073-1.239a7.998 7.998 0 0 0-.52.622c-1.084 1.442-1.658 3.243-1.658 5.21 0 2.83 1.665 5.933 4.947 9.23.9.904 1.855 1.753 2.79 2.522a53.667 53.667 0 0 1-4.69 3.433 3.56 3.56 0 0 1-3.884 0c-1.645-1.072-4.805-3.27-7.48-5.955C1.664 15.144 0 12.04 0 9.21 0 7.244.573 5.443 1.658 4zm19.4-3.029a7.528 7.528 0 0 1 5.46 2.366 8.513 8.513 0 0 0-2.53-1.72A7.47 7.47 0 0 0 21 .972z"/>
        <path d="M26.49 1.618c1.136.506 2.17 1.305 3.054 2.35l-.025.033c-1.062 1.442-1.622 3.243-1.622 5.21 0 2.83 1.627 5.933 4.837 9.23a39.21 39.21 0 0 0 3.267 2.968 53.407 53.407 0 0 1-4.05 2.987 3.418 3.418 0 0 1-3.798 0c-1.61-1.072-4.7-3.27-7.316-5.955C17.627 15.144 16 12.04 16 9.21c0-1.967.56-3.768 1.622-5.21 2.07-2.82 5.735-3.806 8.868-2.383z"/>
        <path d="M58.326 4.001a7.623 7.623 0 0 0-9.15-2.383c-1.406.61-2.66 1.637-3.676 3-1.017-1.367-2.27-2.394-3.676-3A7.623 7.623 0 0 0 32.674 4C31.579 5.443 31 7.244 31 9.211c0 2.83 1.68 5.933 4.992 9.23 2.699 2.685 5.888 4.883 7.548 5.955a3.621 3.621 0 0 0 3.92 0c1.659-1.072 4.85-3.27 7.548-5.955C58.32 15.146 60 12.04 60 9.21c0-1.967-.579-3.768-1.674-5.21z"/>
    </g>
</svg>
