<svg width="37" height="36" fill="none" xmlns="http://www.w3.org/2000/svg">
    <path fill-rule="evenodd" clip-rule="evenodd" d="M2.997 35.432c-1.109 0-2.008-.803-2.008-1.796v-.72c0-5.52 4.332-10.132 10.121-11.27a10.911 10.911 0 0 0 4.642 2.574c.446 1.1 1.624 1.885 3.009 1.885h4.006c2.856 0 5.39-1.252 6.956-3.173 3.844 1.998 6.43 5.72 6.43 9.983v.721c0 .992-.898 1.796-2.007 1.796H2.996zM18.76 24.47c-.757 0-1.372-.55-1.372-1.227 0-.678.615-1.226 1.372-1.226h4.006c2.221 0 4.027-1.616 4.027-3.601v-.879a2.149 2.149 0 0 1-.632-.651 9.913 9.913 0 0 1-1.002 1.894c-.254.368-.747 1.063-1.294 1.337a2.452 2.452 0 0 1-1.098.264h-4.007c-1.142 0-2.143.536-2.71 1.34-2.342-.787-4.118-2.588-5.031-4.737a1.914 1.914 0 0 1-.04-.097c-.39.63-1.14 1.059-2.003 1.059-1.258 0-2.287-.912-2.287-2.044v-5.118c0-.682.375-1.286.95-1.657C8.086 4.08 12.818.098 18.57.098c5.755 0 10.487 3.983 10.933 9.028.574.37.948.975.948 1.657v5.118c0 .668-.358 1.262-.914 1.635v.878c0 3.339-3.036 6.055-6.77 6.055h-4.006zm7.35-14.583c.152-.278.373-.52.643-.71-.41-3.714-3.923-6.625-8.183-6.625-4.259 0-7.772 2.911-8.182 6.626.27.189.49.431.642.71l.005-.012c1.263-2.936 4.106-5.11 7.535-5.11 3.357 0 6.246 2.101 7.54 5.121z" fill="#8EA4C6"/>
</svg>
