<svg width="14" height="14" viewBox="0 0 14 14" xmlns="http://www.w3.org/2000/svg">
    <path d="M13.64 2.101 11.899.361a1.223 1.223 0 0 0-.87-.361h-.001c-.33 0-.638.128-.87.36L1.281 9.237c-.073.074-.103.18-.124.246L.016 13.477a.41.41 0 0 0 .507.507l3.991-1.14c.012-.004.189-.064.25-.125l8.876-8.877c.232-.232.36-.541.36-.87 0-.33-.128-.639-.36-.87zM1.008 12.992l.766-2.682 1.916 1.916-2.682.766zm3.465-1.144L2.152 9.527 9.287 2.39l2.322 2.322-7.136 7.135zm8.587-8.586-.871.87-2.322-2.321.871-.871a.406.406 0 0 1 .29-.12c.11 0 .213.043.29.12l1.742 1.742c.16.16.16.42 0 .58z" fill="#FFF" fill-rule="nonzero"/>
</svg>
