<svg width="29" height="21" viewBox="0 0 29 21" xmlns="http://www.w3.org/2000/svg">
    <g fill="#FFF" fill-rule="nonzero">
        <path d="M28.337 10.24h-1.946c-.176 0-.47-.01-.47-.187V8.089c0-.177.007-.41-.17-.41h-1.954c-.177 0-.437-.054-.437-.23V5.495c0-.177-.026-.375-.203-.375h-1.95c-.176 0-.407-.089-.407-.266V2.891c0-.176-.1-.318-.276-.317-.638.005-1.292.006-1.955.006a.328.328 0 0 0-.329.32v1.946c0 .177-.081.274-.258.274h-7.18c-.176 0-.242-.097-.242-.273V2.899c0-.177-.182-.32-.358-.32-.657 0-1.273 0-1.905-.006C8.12 2.572 8 2.713 8 2.89v1.982c0 .177-.228.248-.404.248H5.63c-.177 0-.19.215-.19.391v1.957c0 .176-.273.212-.45.212H3.031c-.176 0-.471.25-.471.428v1.958c0 .177.008.174-.169.174H.463c-.177 0-.463.29-.463.466v7.097c0 .177.286.437.463.437H2.39c.177 0 .17-.26.17-.438v-4.516c0-.177.294-.166.47-.166H5.01c.176 0 .431-.011.431.166v4.545c0 .177.087.32.264.32.657 0 1.32 0 1.952.006.177.001.344-.14.344-.317v-1.952c0-.176.04-.208.217-.208h12.368c.177 0 .32.088.32.264 0 .657-.001 1.32-.006 1.959-.001.177.14.337.317.337h1.949c.176 0 .195-.234.195-.41v-4.54c0-.177.268-.17.444-.17h1.99c.176 0 .446-.007.446.17v4.512c0 .177.017.438.194.438h1.903c.177 0 .463-.26.463-.437v-7.11c0-.177-.286-.453-.463-.453zm-17.777-.202c0 .177-.2.202-.377.202H8.228c-.177 0-.228-.025-.228-.202V8.087c0-.177.052-.407.229-.407h1.954c.176 0 .377.23.377.407v1.951zm10.24.005c0 .177-.053.197-.23.197h-1.951c-.177 0-.379-.02-.379-.197V8.09c0-.176.202-.41.379-.41h1.951c.177 0 .23.234.23.41v1.953z"/>
        <path d="M12.776 18.174h-1.44l-3.114-.012a.318.318 0 0 0-.32.319c.006.64.005 1.321.005 1.962 0 .176.142.357.318.357h4.527c.176 0 .368-.22.368-.396v-1.91c0-.177-.167-.32-.344-.32zM20.697 18.167c-.05.004-.076.04-.127.04-1.523 0-3.023.033-4.546.033h-.145c-.08 0-.199.077-.199.253v1.915c0 .177.197.392.374.392h4.522c.177 0 .224-.216.224-.392V18.47c0-.177-.02-.31-.103-.303zM5.658 2.56h1.938a.312.312 0 0 0 .317-.315c-.005-.64-.006-1.284-.006-1.924a.32.32 0 0 0-.32-.32H5.657C5.482 0 5.44.148 5.44.325v1.925c0 .176.042.309.218.309zM21.168 2.577c.64-.005 1.258-.005 1.898-.006.177 0 .294-.143.294-.32V.322c0-.176-.043-.322-.22-.322h-1.923c-.177 0-.417.146-.417.323V2.26c0 .176.192.318.368.316z"/>
    </g>
</svg>
