<svg width="25" height="25" viewBox="0 0 25 25" xmlns="http://www.w3.org/2000/svg">
    <g fill="#FFF" fill-rule="nonzero">
        <path d="M6.097 5.713h.357c.543 0 .982-.44.982-.982V1.007a.982.982 0 0 0-.982-.983h-.357a.982.982 0 0 0-.982.983V4.73c0 .542.44.982.982.982zM18.696 5.689h.357c.542 0 .982-.44.982-.982V.983A.982.982 0 0 0 19.053 0h-.357a.982.982 0 0 0-.983.982v3.725c0 .542.44.982.983.982z"/>
        <path d="M23.354 2.02h-2.52v2.944c0 .982-.8 1.523-1.781 1.523h-.357c-.982 0-1.78-.799-1.78-1.78V2.02H8.234v2.71c0 .983-.799 1.782-1.78 1.782h-.358c-.982 0-1.78-.8-1.78-1.781V2.02h-2.72C.717 2.02 0 2.736 0 3.616v19.296c0 .88.716 1.597 1.597 1.597h21.757c.88 0 1.597-.717 1.597-1.597V3.617c0-.88-.716-1.597-1.597-1.597zm0 20.893H1.597V8.34h21.758v14.572z"/>
        <path d="M13.3 13.229h2.867a.206.206 0 0 0 .206-.206V10.54a.206.206 0 0 0-.206-.205H13.3a.206.206 0 0 0-.206.205v2.483c0 .114.092.206.206.206zM17.979 13.229h2.867a.206.206 0 0 0 .206-.206V10.54a.206.206 0 0 0-.206-.205H17.98a.206.206 0 0 0-.206.205v2.483c0 .114.092.206.206.206zM3.942 17.294h2.867a.206.206 0 0 0 .206-.206v-2.483a.206.206 0 0 0-.206-.206H3.942a.206.206 0 0 0-.206.206v2.483c0 .113.092.206.206.206zM8.62 17.294h2.868a.206.206 0 0 0 .206-.206v-2.483a.206.206 0 0 0-.206-.206H8.62a.206.206 0 0 0-.206.206v2.483c0 .113.092.206.206.206zM13.3 17.294h2.867a.206.206 0 0 0 .206-.206v-2.483a.206.206 0 0 0-.206-.206H13.3a.206.206 0 0 0-.206.206v2.483c0 .113.092.206.206.206zM17.979 17.294h2.867a.206.206 0 0 0 .206-.206v-2.483a.206.206 0 0 0-.206-.206H17.98a.206.206 0 0 0-.206.206v2.483c0 .113.092.206.206.206zM6.809 18.464H3.942a.206.206 0 0 0-.206.206v2.482c0 .114.092.206.206.206h2.867a.206.206 0 0 0 .206-.206V18.67a.206.206 0 0 0-.206-.206zM11.488 18.464H8.621a.206.206 0 0 0-.206.206v2.482c0 .114.092.206.206.206h2.867a.206.206 0 0 0 .206-.206V18.67a.206.206 0 0 0-.206-.206zM16.167 18.464H13.3a.206.206 0 0 0-.206.206v2.482c0 .114.092.206.206.206h2.867a.206.206 0 0 0 .206-.206V18.67a.206.206 0 0 0-.206-.206zM20.846 18.464H17.98a.206.206 0 0 0-.206.206v2.482c0 .114.092.206.206.206h2.867a.206.206 0 0 0 .206-.206V18.67a.206.206 0 0 0-.206-.206z"/>
    </g>
</svg>
