<svg width="19" height="26" viewBox="0 0 19 26" xmlns="http://www.w3.org/2000/svg">
    <path d="M18.946 14.832c-.29-3.778-2.05-6.145-3.601-8.235-1.437-1.934-2.678-3.604-2.678-6.068a.528.528 0 0 0-.835-.43C9.5 1.767 7.556 4.578 6.877 7.26c-.471 1.868-.534 3.967-.543 5.354-2.152-.46-2.64-3.68-2.645-3.715a.53.53 0 0 0-.753-.4c-.113.054-2.77 1.405-2.925 6.796-.01.18-.011.36-.011.54 0 5.237 4.262 9.499 9.5 9.499h.028c5.225-.015 9.472-4.271 9.472-9.5 0-.263-.054-1-.054-1zM9.5 24.277c-1.746 0-3.167-1.513-3.167-3.373 0-.063 0-.127.004-.206.022-.784.17-1.32.334-1.676.306.658.853 1.262 1.743 1.262a.527.527 0 0 0 .527-.527c0-.752.016-1.619.203-2.4.166-.695.564-1.433 1.068-2.024.225.768.662 1.39 1.088 1.996.611.868 1.243 1.765 1.353 3.295.007.09.014.182.014.28 0 1.86-1.42 3.373-3.167 3.373z" fill="#FFF" fill-rule="nonzero"/>
</svg>
