<svg width="27" height="22" viewBox="0 0 27 22" xmlns="http://www.w3.org/2000/svg">
    <g fill="#FFF" fill-rule="nonzero">
        <path d="M21.97 5.244h-9.74l-1.938-2.303a.332.332 0 0 0-.265-.12h-7.86A2.184 2.184 0 0 0 0 5.007V19.17a2.184 2.184 0 0 0 2.181 2.181h19.79a2.184 2.184 0 0 0 2.18-2.18V7.424a2.184 2.184 0 0 0-2.18-2.181z"/>
        <path d="M24.832 2.422h-9.744L13.151.12A.332.332 0 0 0 12.886 0H5.029a2.181 2.181 0 0 0-2.157 1.885h7.166c.375-.001.732.165.974.453l1.654 1.966h9.305a3.124 3.124 0 0 1 3.118 3.119v11.085A2.181 2.181 0 0 0 27 16.346V4.6a2.184 2.184 0 0 0-2.168-2.179z"/>
    </g>
</svg>
