<svg width="25" height="22" viewBox="0 0 25 22" xmlns="http://www.w3.org/2000/svg">
    <g fill="#FFF" fill-rule="nonzero">
        <path d="M21.39 11.449h-1.933c.197.54.305 1.122.305 1.728v7.307c0 .253-.044.496-.124.722h3.196a2.168 2.168 0 0 0 2.165-2.165v-3.984a3.613 3.613 0 0 0-3.609-3.608zM5.237 13.177c0-.606.108-1.189.305-1.728H3.61A3.613 3.613 0 0 0 0 15.058v3.983c0 1.194.971 2.165 2.165 2.165h3.197a2.155 2.155 0 0 1-.125-.722v-7.307zM14.71 9.569h-4.42a3.613 3.613 0 0 0-3.61 3.608v7.307c0 .399.324.722.723.722h10.193a.722.722 0 0 0 .722-.722v-7.307A3.613 3.613 0 0 0 14.71 9.57zM12.5 0a4.345 4.345 0 0 0-4.34 4.34 4.343 4.343 0 0 0 4.34 4.34 4.343 4.343 0 0 0 4.34-4.34A4.345 4.345 0 0 0 12.5 0zM4.879 4.045a3.25 3.25 0 0 0-3.246 3.246 3.25 3.25 0 0 0 4.525 2.983 3.266 3.266 0 0 0 1.585-1.458c.243-.455.381-.974.381-1.525A3.25 3.25 0 0 0 4.88 4.045zM20.12 4.045a3.25 3.25 0 0 0-3.245 3.246c0 .55.138 1.07.381 1.525a3.266 3.266 0 0 0 1.585 1.458 3.25 3.25 0 0 0 4.525-2.983 3.25 3.25 0 0 0-3.246-3.246z"/>
    </g>
</svg>
