<svg width="26" height="26" viewBox="0 0 26 26" xmlns="http://www.w3.org/2000/svg">
    <path d="M12.92 0C5.787 0 0 5.78 0 12.913c0 7.14 5.787 12.926 12.92 12.926 7.136 0 12.918-5.786 12.918-12.926C25.838 5.779 20.056 0 12.92 0zm.92 20.101c-.3.268-.648.402-1.042.402-.407 0-.763-.132-1.066-.396-.304-.264-.456-.633-.456-1.107 0-.42.147-.775.44-1.062.295-.287.655-.43 1.082-.43.421 0 .775.143 1.063.43.287.287.43.641.43 1.062 0 .467-.15.835-.45 1.101zm3.742-9.275c-.23.427-.505.796-.822 1.107-.317.31-.886.833-1.708 1.567a7.07 7.07 0 0 0-.546.546c-.137.157-.239.3-.305.43-.068.131-.12.261-.156.392-.036.13-.091.359-.165.686-.127.695-.524 1.042-1.192 1.042a1.22 1.22 0 0 1-.877-.34c-.237-.228-.355-.565-.355-1.012 0-.561.087-1.047.26-1.458.173-.41.404-.771.691-1.082.288-.31.675-.68 1.163-1.107.427-.374.736-.656.926-.846.19-.19.35-.403.48-.636.132-.234.196-.488.196-.761 0-.535-.198-.985-.596-1.353-.397-.367-.91-.55-1.538-.55-.735 0-1.276.185-1.623.555-.347.37-.64.917-.881 1.638-.228.755-.659 1.132-1.292 1.132-.374 0-.69-.132-.947-.395-.257-.264-.385-.55-.385-.857 0-.634.203-1.277.61-1.928.408-.651 1.002-1.19 1.784-1.618.781-.427 1.693-.641 2.734-.641.969 0 1.823.179 2.564.536.741.357 1.314.843 1.719 1.458.403.614.606 1.282.606 2.003 0 .567-.115 1.064-.345 1.492z" fill="#FFF" fill-rule="nonzero"/>
</svg>
