<svg width="22" height="26" viewBox="0 0 22 26" xmlns="http://www.w3.org/2000/svg">
    <path d="M16.175 23.9c0 .65-.527 1.176-1.176 1.176H3.92A3.923 3.923 0 0 1 0 21.158V3.918A3.923 3.923 0 0 1 3.918 0H15a1.175 1.175 0 0 1 0 2.35H3.92c-.866.002-1.567.703-1.568 1.568v17.24c0 .865.702 1.566 1.567 1.567H15c.65 0 1.176.526 1.176 1.175zm5.316-12.193L15.905 6.12a1.175 1.175 0 1 0-1.662 1.662l3.58 3.58H8.568a1.175 1.175 0 0 0 0 2.35h9.253l-3.579 3.58a1.175 1.175 0 1 0 1.662 1.662l5.586-5.586a1.175 1.175 0 0 0 0-1.662z" fill="#FFF" fill-rule="nonzero"/>
</svg>
