<svg width="26" height="22" viewBox="0 0 26 22" xmlns="http://www.w3.org/2000/svg">
    <g fill-rule="nonzero" fill="none">
        <path d="M1.62 21.77A1.63 1.63 0 0 1 0 20.15V6.82a3.363 3.363 0 0 1 3.354-3.353h15.817c1.853 0 3.358 1.5 3.362 3.354v8.883c0 1.854-1.5 3.358-3.354 3.363H5.99a.71.71 0 0 0-.416.138L2.6 21.45c-.283.21-.627.322-.98.32z" fill="#FFF"/>
        <path d="M3.354 5.2a1.63 1.63 0 0 0-1.62 1.62v13.113l2.799-2.114a2.461 2.461 0 0 1 1.456-.486H19.17c.9 0 1.629-.73 1.629-1.629V6.821A1.63 1.63 0 0 0 19.18 5.2H3.353z" fill="#FFF"/>
        <circle fill="#24024E" cx="14.681" cy="11.345" r="1"/>
        <circle fill="#24024E" cx="11.319" cy="11.345" r="1"/>
        <circle fill="#24024E" cx="7.852" cy="11.345" r="1"/>
        <path d="M25.133 13a.867.867 0 0 1-.866-.867V3.354a1.63 1.63 0 0 0-1.621-1.62H5.2A.867.867 0 1 1 5.2 0h17.446A3.363 3.363 0 0 1 26 3.354v8.78a.867.867 0 0 1-.867.866z" fill="#FFF"/>
    </g>
</svg>
