<svg width="24" height="24" viewBox="0 0 24 24" xmlns="http://www.w3.org/2000/svg">
    <path d="m23.305 10.417-.002-.001-9.77-9.77A2.19 2.19 0 0 0 11.974 0a2.19 2.19 0 0 0-1.56.646L.65 10.41l-.01.01a2.207 2.207 0 0 0 .004 3.114 2.192 2.192 0 0 0 1.532.646h.389v7.19a2.583 2.583 0 0 0 2.58 2.58h3.823a.702.702 0 0 0 .702-.701v-5.637c0-.65.528-1.177 1.177-1.177H13.1c.65 0 1.178.528 1.178 1.177v5.637c0 .387.314.701.701.701h3.823a2.583 2.583 0 0 0 2.58-2.58v-7.19h.361c.589 0 1.143-.23 1.56-.646.858-.859.859-2.257 0-3.117z" fill="#FFF" fill-rule="nonzero"/>
</svg>
