<?xml version="1.0" encoding="UTF-8"?>
<svg width="63px" height="63px" viewBox="0 0 63 63" version="1.1" xmlns="http://www.w3.org/2000/svg" xmlns:xlink="http://www.w3.org/1999/xlink">
    <title>BCB4F75C-4A7D-403B-98F6-7D55553521A0</title>
    <g id="Ikigai" stroke="none" stroke-width="1" fill="none" fill-rule="evenodd">
        <g id="vision-board" transform="translate(-890.000000, -1976.000000)">
            <g id="Group-20" transform="translate(890.000000, 1976.000000)">
                <circle id="Oval" stroke="#FFFFFF" stroke-width="3" cx="31.5" cy="31.5" r="30"></circle>
                <g id="pen-copy-2" transform="translate(18.000000, 16.000000)" fill="#FFFFFF" fill-rule="nonzero">
                    <path d="M0.0584164143,27.8897553 C-0.0265730942,28.1844635 0.0584164143,28.5072708 0.273546108,28.7225494 C0.432237442,28.8809662 0.653342974,28.9716797 0.874227194,28.9716797 C0.953462176,28.9716797 1.03291853,28.9603958 1.10662035,28.9376068 L9.02746549,26.6777344 L2.31904884,19.9715728 L0.0584164143,27.8897553 Z" id="Path"></path>
                    <path d="M0.874227194,29 C0.641833978,29 0.420949815,28.9092865 0.256725268,28.7451172 C0.0300865781,28.5185547 -0.0549029304,28.1899948 0.0356197351,27.8842239 L2.31329431,19.9204636 L9.08987969,26.6947708 L1.11215351,28.9659272 C1.03291853,28.9887161 0.953462176,29 0.874227194,29 Z M2.33609099,20.0224609 L0.0867462505,27.8955078 C0.0072898989,28.1844635 0.0867462505,28.4902344 0.296342787,28.6997605 C0.449279651,28.8526459 0.658876131,28.9376068 0.874227194,28.9376068 C0.947929019,28.9376068 1.027164,28.926323 1.10086588,28.9037552 L8.97656034,26.6551666 L2.33609099,20.0224609 Z" id="Shape"></path>
                    <path d="M28.2350944,4.37261201 L24.6372052,0.775932326 C24.1500649,0.294487014 23.5155208,0.0283203125 22.8298502,0.0283203125 C22.1499342,0.0283203125 21.5096356,0.294487014 21.0280283,0.770400973 L19.2262065,2.5713959 L26.4277394,9.77050781 L28.2295613,7.9692917 C28.7111685,7.48784639 28.9717615,6.84776309 28.9717615,6.16807559 C28.9774247,5.48838809 28.7111685,4.85405733 28.2350944,4.37261201 Z" id="Path"></path>
                    <path d="M26.4334939,9.81011201 L19.1923435,2.5713959 L21.0109862,0.753364549 C21.4983479,0.266166701 22.1441796,0 22.8298502,0 C23.5210539,0 24.167107,0.266166701 24.6487142,0.753364549 L28.2466034,4.35004424 C28.7337438,4.8370209 29,5.48285674 29,6.16807559 C29,6.85926816 28.7337438,7.50488281 28.2466034,7.98632813 L26.4334939,9.81011201 Z M19.2715785,2.5713959 L26.4334939,9.73090361 L28.2125191,7.95225528 C28.6883718,7.4765625 28.9490949,6.84776309 28.9490949,6.17382813 C28.9490949,5.49989316 28.6883718,4.87109375 28.2125191,4.39540097 L24.6146299,0.79296875 C24.1387772,0.317275973 23.5040118,0.056640625 22.8298502,0.056640625 C22.1556886,0.056640625 21.5266778,0.317275973 21.050825,0.79296875 L19.2715785,2.5713959 Z" id="Shape"></path>
                    <polygon id="Path" points="3.27518081 18.5223694 18.0305989 3.77169038 25.2341237 10.9727936 10.4787056 25.7234726"></polygon>
                    <path d="M10.4780417,25.7657318 L3.23135807,18.5214844 L18.0308202,3.73252871 L25.2719706,10.9712448 L10.4780417,25.7657318 Z M3.31634758,18.5214844 L10.4780417,25.6807709 L25.1925143,10.9712448 L18.0308202,3.8119583 L3.31634758,18.5214844 Z" id="Shape"></path>
                </g>
            </g>
        </g>
    </g>
</svg>