<svg width="14" height="19" viewBox="0 0 14 19" xmlns="http://www.w3.org/2000/svg">
    <g fill="#55118A" fill-rule="nonzero">
        <path d="M3.771 2.164c0-.582.43-1.006.979-1.006h4.022c.55 0 .978.424.978 1.006v1.101h.725V2.164C10.475 1.16 9.721.39 8.772.39H4.75c-.95 0-1.703.769-1.703 1.773v1.101h.724V2.164zM2.61 18.593h8.301c.8 0 1.421-.706 1.421-1.584V6.139H1.19v10.87c0 .878.621 1.584 1.422 1.584zM8.999 7.82a.352.352 0 1 1 .702 0v8.317a.352.352 0 1 1-.702 0V7.82zm-2.588 0a.352.352 0 1 1 .702 0v8.317a.352.352 0 1 1-.702 0V7.82zm-2.588 0a.352.352 0 1 1 .702 0v8.317a.352.352 0 1 1-.702 0V7.82z"/>
        <path d="M1.099 6.14h11.324c.463 0 .838-.43.838-.959 0-.529-.375-.958-.838-.958H1.1c-.463 0-.838.43-.838.958 0 .53.375.958.838.958z"/>
    </g>
</svg>
