<svg width="33" height="33" viewBox="0 0 33 33" fill="none" xmlns="http://www.w3.org/2000/svg">
    <mask id="b" fill="#fff">
        <path d="M26.88 15.118a11.2 11.2 0 0 0-2.671-3.712l-.938-.86a.262.262 0 0 0-.42.106l-.418 1.202c-.261.754-.741 1.524-1.421 2.281a.201.201 0 0 1-.132.065.178.178 0 0 1-.139-.048.19.19 0 0 1-.064-.155c.119-1.94-.461-4.128-1.731-6.51-1.05-1.979-2.51-3.522-4.335-4.599l-1.33-.783a.258.258 0 0 0-.387.235l.07 1.547c.05 1.057-.073 1.992-.363 2.769a9.19 9.19 0 0 1-1.515 2.626 9.525 9.525 0 0 1-1.53 1.486 11.363 11.363 0 0 0-3.233 3.915 11.207 11.207 0 0 0-.274 9.356 11.324 11.324 0 0 0 6.04 5.981 11.34 11.34 0 0 0 4.411.883c1.53 0 3.013-.297 4.412-.88a11.235 11.235 0 0 0 3.606-2.407 11.157 11.157 0 0 0 3.326-7.957c0-1.573-.323-3.1-.964-4.54z"/>
    </mask>
    <path d="M26.88 15.118a11.2 11.2 0 0 0-2.671-3.712l-.938-.86a.262.262 0 0 0-.42.106l-.418 1.202c-.261.754-.741 1.524-1.421 2.281a.201.201 0 0 1-.132.065.178.178 0 0 1-.139-.048.19.19 0 0 1-.064-.155c.119-1.94-.461-4.128-1.731-6.51-1.05-1.979-2.51-3.522-4.335-4.599l-1.33-.783a.258.258 0 0 0-.387.235l.07 1.547c.05 1.057-.073 1.992-.363 2.769a9.19 9.19 0 0 1-1.515 2.626 9.525 9.525 0 0 1-1.53 1.486 11.363 11.363 0 0 0-3.233 3.915 11.207 11.207 0 0 0-.274 9.356 11.324 11.324 0 0 0 6.04 5.981 11.34 11.34 0 0 0 4.411.883c1.53 0 3.013-.297 4.412-.88a11.235 11.235 0 0 0 3.606-2.407 11.157 11.157 0 0 0 3.326-7.957c0-1.573-.323-3.1-.964-4.54z" fill="url(#a)"/>
    <path d="m24.209 11.406-.677.737h.001l.676-.737zm-.938-.86.676-.738-.01-.009-.666.746zm-.42.106-.94-.338-.003.009.944.329zm-.418 1.202-.944-.33-.001.003.945.327zm-1.421 2.281.73.683.007-.007.007-.008-.744-.668zm-.271.017.682-.731-.015-.015-.016-.014-.651.76zm-.064-.155-.999-.062v.006l.999.056zm-1.731-6.51-.883.469v.002l.883-.47zm-4.335-4.599.509-.86-.001-.002-.508.862zm-1.33-.783-.51.86.002.002.508-.862zm-.387.235.999-.045v-.002l-1 .047zm.07 1.547 1-.045-1 .045zm-.363 2.769-.937-.35.937.35zm-1.515 2.626.772.635-.772-.635zm-1.53 1.486.609.793.002-.002-.612-.791zm-3.233 3.915-.894-.448-.002.004.896.444zm-1.167 4.973h-1 1zm.893 4.383-.92.392v.001l.92-.393zm2.433 3.574-.703.71v.001l.703-.711zm3.606 2.407.387-.922h-.001l-.386.922zm8.824.003-.384-.923h-.001l.385.923zm3.606-2.407-.703-.712-.002.003.705.709zm2.433-3.574-.92-.393.92.393zm.893-4.383h-1v.002l1-.002zm-.05-4.947a12.198 12.198 0 0 0-2.91-4.044l-1.35 1.475a10.198 10.198 0 0 1 2.432 3.381l1.828-.812zm-2.91-4.043-.937-.86-1.352 1.473.938.86 1.352-1.473zm-.947-.87a1.26 1.26 0 0 0-.54-.284l-.475 1.943a.74.74 0 0 1-.317-.167L23.937 9.8zm-.54-.284a1.26 1.26 0 0 0-.61.003l.492 1.938a.738.738 0 0 1-.357.002l.475-1.943zm-.61.003c-.2.05-.384.15-.537.289l1.344 1.48a.738.738 0 0 1-.315.17l-.492-1.94zm-.537.289c-.153.138-.27.312-.34.506l1.883.677a.74.74 0 0 1-.199.297l-1.344-1.48zm-.342.516-.42 1.202 1.89.658.418-1.202-1.888-.658zm-.42 1.204c-.207.598-.605 1.256-1.22 1.94l1.488 1.336c.745-.83 1.307-1.712 1.622-2.622l-1.89-.654zm-1.207 1.926a.798.798 0 0 1 .508-.249l.181 1.992c.194-.018.509-.095.773-.378l-1.462-1.365zm.508-.249a.822.822 0 0 1 .634.216l-1.364 1.463c.31.29.675.334.911.313l-.18-1.992zm.603.188a.81.81 0 0 1 .283.66l-1.997-.11c-.02.346.114.713.412.969l1.302-1.519zm.283.666c.134-2.182-.522-4.557-1.847-7.041l-1.764.94c1.214 2.279 1.719 4.28 1.614 5.978l1.997.123zm-1.846-7.04c-1.133-2.133-2.719-3.816-4.71-4.99L14.104 3.75c1.658.978 2.991 2.382 3.96 4.206l1.766-.938zm-4.71-4.992-1.331-.783-1.014 1.724 1.33.783 1.015-1.724zm-1.329-.781c-.87-.516-1.942.159-1.895 1.143l1.998-.095a.742.742 0 0 1-1.122.673l1.02-1.721zm-1.895 1.141.07 1.547 1.999-.091-.071-1.547-1.998.091zm.07 1.547c.045.959-.07 1.753-.301 2.373l1.873.7c.349-.934.48-2.009.427-3.164l-1.998.091zm-.301 2.373a8.19 8.19 0 0 1-1.35 2.341l1.545 1.27a10.19 10.19 0 0 0 1.679-2.912l-1.874-.699zm-1.35 2.341c-.406.493-.866.94-1.37 1.33l1.223 1.582a10.525 10.525 0 0 0 1.691-1.642l-1.545-1.27zM8.945 9.975a12.363 12.363 0 0 0-3.517 4.26l1.788.897a10.363 10.363 0 0 1 2.948-3.571l-1.22-1.586zm-3.519 4.264a12.207 12.207 0 0 0-1.27 5.416l2 .001c0-1.57.364-3.12 1.062-4.528l-1.792-.889zm-1.27 5.417c0 1.655.326 3.261.972 4.775l1.84-.785a10.093 10.093 0 0 1-.813-3.99h-2zm.973 4.776a12.26 12.26 0 0 0 2.649 3.892l1.406-1.422a10.26 10.26 0 0 1-2.217-3.257l-1.838.787zm2.65 3.892a12.321 12.321 0 0 0 3.923 2.619l.77-1.846a10.322 10.322 0 0 1-3.288-2.196l-1.406 1.423zm3.921 2.618a12.34 12.34 0 0 0 4.799.96v-2c-1.4 0-2.75-.27-4.025-.804l-.774 1.844zm4.799.96c1.662 0 3.275-.322 4.797-.956l-.77-1.846a10.396 10.396 0 0 1-4.027.803v2zm4.796-.956c1.467-.61 2.8-1.5 3.927-2.621l-1.41-1.418a10.235 10.235 0 0 1-3.285 2.193l.768 1.846zm3.925-2.619a12.157 12.157 0 0 0 2.65-3.893l-1.84-.785a10.156 10.156 0 0 1-2.216 3.255l1.406 1.423zm2.65-3.892c.645-1.51.976-3.136.973-4.778l-2 .004a10.093 10.093 0 0 1-.813 3.988l1.84.786zm.973-4.776a12.09 12.09 0 0 0-1.05-4.947l-1.827.813c.584 1.312.877 2.7.877 4.134h2z" fill="#fff" mask="url(#b)"/>
    <defs>
        <linearGradient id="a" x1="5.156" y1="2.07" x2="5.156" y2="30.903" gradientUnits="userSpaceOnUse">
            <stop stop-color="#FD0E42"/>
            <stop offset="1" stop-color="#C40F31"/>
        </linearGradient>
    </defs>
</svg>
