<svg width="44" height="49" viewBox="0 0 44 49" fill="none" xmlns="http://www.w3.org/2000/svg">
    <path d="M41.556 0H7.333C4.385 0 0 1.958 0 7.35v34.3C0 47.042 4.385 49 7.333 49H44v-4.9H7.363c-1.13-.03-2.474-.475-2.474-2.45s1.344-2.42 2.474-2.45H44V2.45c0-.65-.258-1.273-.716-1.732A2.441 2.441 0 0 0 41.556 0zm-25.66 7.35a3.67 3.67 0 0 1 2.598 1.079 3.687 3.687 0 0 1 0 5.207 3.67 3.67 0 0 1-5.196 0 3.687 3.687 0 0 1 0-5.207 3.67 3.67 0 0 1 2.598-1.079zM22 26.95H9.778l7.333-7.35 3.667 3.428L28.11 14.7l8.556 12.25H22z" fill="url(#a)"/>
    <defs>
        <linearGradient id="a" x1="22" y1="0" x2="22" y2="49" gradientUnits="userSpaceOnUse">
            <stop stop-color="#74F7FF"/>
            <stop offset="1" stop-color="#6665DD"/>
        </linearGradient>
    </defs>
</svg>
