<svg width="30" height="25" viewBox="0 0 30 25" fill="none" xmlns="http://www.w3.org/2000/svg">
    <path d="M0 11.333s5.584-8 14.667-8c1.262 0 2.452.162 3.57.43l-8.424 8.424A5.28 5.28 0 0 1 9.333 10 5.28 5.28 0 0 1 10.5 6.708c-3.19 1.083-5.619 3.18-7.005 4.625a19.826 19.826 0 0 0 3.973 3.198l-1.937 1.937C1.996 14.173 0 11.333 0 11.333zm29.333 0s-5.584 8-14.666 8c-1.262 0-2.448-.165-3.568-.43l-5.766 5.764-2-2L26 0l2 2-4.196 4.196c3.53 2.296 5.53 5.137 5.53 5.137zm-3.486.008a19.775 19.775 0 0 0-3.983-3.204L20 10a5.333 5.333 0 0 1-5.333 5.333l-1.263 1.263c.413.041.832.07 1.263.07 5.304 0 9.257-3.303 11.18-5.325z" fill="url(#a)"/>
    <defs>
        <linearGradient id="a" x1="14.667" y1="0" x2="14.667" y2="24.667" gradientUnits="userSpaceOnUse">
            <stop stop-color="#FF9E00"/>
            <stop offset="1" stop-color="#FF6D00"/>
        </linearGradient>
    </defs>
</svg>
