<svg width="26" height="27" viewBox="0 0 26 27" fill="none" xmlns="http://www.w3.org/2000/svg">
<path d="M20.7215 12.3094L20.7214 12.3091C20.2564 11.2625 19.5804 10.3232 18.7358 9.54985L18.7354 9.54949L18.3286 9.17624L18.1469 9.69756C18.1468 9.69773 18.1468 9.6979 18.1467 9.69808C17.9141 10.3699 17.4949 11.0329 16.9267 11.6657L16.9203 11.6729L16.9202 11.6728C16.7753 11.8281 16.6029 11.8707 16.4958 11.8804C16.3697 11.8919 16.1754 11.8686 16.0078 11.7168C15.8514 11.5782 15.781 11.3813 15.7914 11.1947L15.7916 11.1918C15.8781 9.78446 15.4588 8.15359 14.4859 6.3288L14.4855 6.32805C13.6989 4.84647 12.612 3.7 11.2583 2.90112C11.2582 2.90106 11.2581 2.901 11.258 2.90095L10.6833 2.56283L10.7141 3.23455L10.7141 3.2346C10.7545 4.11658 10.6539 4.92329 10.3961 5.61342C10.0973 6.41466 9.66829 7.15837 9.12079 7.82513L9.12058 7.82539C8.73987 8.28839 8.30837 8.70718 7.83419 9.07387L7.83305 9.07475C6.82244 9.85163 6.00062 10.847 5.4291 11.9864C4.8598 13.1349 4.56324 14.3992 4.5625 15.6811L20.7215 12.3094ZM20.7215 12.3094C21.1981 13.38 21.4375 14.5142 21.4375 15.6836L21.4375 15.6846C21.4398 16.8036 21.2142 17.9113 20.7744 18.9402L20.7743 18.9406C20.3503 19.9345 19.7423 20.8299 18.9658 21.5968L18.9645 21.5981C18.1957 22.363 17.2851 22.9708 16.2838 23.3876L16.2835 23.3878C15.2429 23.8217 14.1404 24.0424 13 24.0424C11.8596 24.0424 10.7575 23.8218 9.71739 23.3856L9.71672 23.3853M20.7215 12.3094L9.71672 23.3853M9.71672 23.3853C8.71306 22.9661 7.81201 22.3625 7.03416 21.5943C6.2654 20.8339 5.65124 19.9317 5.22561 18.9377M9.71672 23.3853L5.22561 18.9377M5.22561 18.9377C4.78522 17.9061 4.56254 16.8127 4.5625 15.6813L5.22561 18.9377Z" fill="url(#paint0_linear_1639:49325)" stroke="white"/>
<defs>
<linearGradient id="paint0_linear_1639:49325" x1="4.0625" y1="1.82544" x2="4.0625" y2="24.5424" gradientUnits="userSpaceOnUse">
<stop stop-color="#FD0E42"/>
<stop offset="1" stop-color="#C40F31"/>
</linearGradient>
</defs>
</svg>
