<svg width="49" height="27" viewBox="0 0 49 27" fill="none" xmlns="http://www.w3.org/2000/svg">
<path d="M43.6851 12.2044L43.6849 12.2041C43.2163 11.1493 42.535 10.2025 41.6837 9.42306L41.6833 9.4227L41.2693 9.04283L41.0843 9.5734C41.0843 9.5736 41.0842 9.57379 41.0841 9.57399C40.8499 10.2502 40.428 10.9177 39.8558 11.5549L39.8494 11.5621L39.8493 11.5621C39.7041 11.7177 39.5314 11.7603 39.4242 11.77L39.4242 11.77C39.2978 11.7815 39.1031 11.7582 38.9352 11.6061C38.7786 11.4673 38.7081 11.2701 38.7185 11.0832L38.7187 11.0802C38.8059 9.66149 38.3832 8.01777 37.4029 6.17899L37.4025 6.17823C36.6097 4.68501 35.5141 3.52945 34.1497 2.72425C34.1496 2.7242 34.1496 2.72416 34.1495 2.72411L33.5646 2.37998L33.5959 3.06359L33.5959 3.06364C33.6366 3.95173 33.5353 4.76385 33.2759 5.45849L43.6851 12.2044ZM43.6851 12.2044C44.1655 13.2835 44.4067 14.4266 44.4067 15.6053L44.4067 15.6063C44.4091 16.7341 44.1817 17.8506 43.7384 18.8877L43.7382 18.888C43.311 19.8898 42.6981 20.7923 41.9155 21.5653L41.9142 21.5665C41.1393 22.3375 40.2215 22.9501 39.2123 23.3702L39.212 23.3703C38.1632 23.8078 37.052 24.0302 35.9026 24.0302C34.7532 24.0302 33.6423 23.8078 32.594 23.3682L32.5934 23.3679C31.5819 22.9454 30.6738 22.3371 29.8899 21.5629M43.6851 12.2044L44.9067 15.6053C44.9092 16.801 44.6681 17.9847 44.1982 19.0842C43.7454 20.1457 43.0957 21.1024 42.2669 21.921C41.4459 22.7378 40.4736 23.3868 39.4045 23.8318C38.2943 24.2948 37.1176 24.5302 35.9026 24.5302C34.6875 24.5302 33.5109 24.2948 32.4007 23.8293C31.3289 23.3816 30.3671 22.737 29.5383 21.9184M29.5383 21.9184L29.8899 21.5629M29.5383 21.9184C28.7173 21.1065 28.0615 20.1431 27.607 19.0816L29.5383 21.9184ZM29.8899 21.5629C29.1149 20.7965 28.4958 19.8871 28.0668 18.8852M29.8899 21.5629L28.0668 18.8852M28.0668 18.8852C27.6229 17.8454 27.3985 16.7434 27.3984 15.603L28.0668 18.8852ZM31.9916 7.68586L31.9914 7.68612C31.608 8.15236 31.1735 8.57407 30.696 8.94333L30.6948 8.94421C29.6762 9.72722 28.8479 10.7305 28.2719 11.8789C27.6981 13.0364 27.3992 14.3108 27.3984 15.6027L31.9916 7.68586ZM31.9916 7.68586C32.5429 7.01445 32.9749 6.26554 33.2758 5.45872L31.9916 7.68586Z" fill="url(#paint0_linear_1639:49332)" stroke="white"/>
<path d="M31.7261 12.2044L31.726 12.2041C31.2573 11.1493 30.576 10.2025 29.7247 9.42306L29.7243 9.4227L29.3103 9.04283L29.1254 9.5734C29.1253 9.5736 29.1252 9.57379 29.1251 9.57399C28.891 10.2502 28.469 10.9177 27.8968 11.5549L27.8904 11.5621L27.8903 11.5621C27.7451 11.7177 27.5724 11.7603 27.4652 11.77L27.4652 11.77C27.3388 11.7815 27.1441 11.7582 26.9762 11.6061C26.8197 11.4673 26.7491 11.2701 26.7595 11.0832L26.7597 11.0802C26.8469 9.66149 26.4243 8.01777 25.4439 6.17899L25.4435 6.17823C24.6507 4.68501 23.5551 3.52945 22.1907 2.72425C22.1907 2.7242 22.1906 2.72416 22.1905 2.72411L21.6056 2.37998L21.6369 3.06359L21.637 3.06364C21.6776 3.95173 21.5763 4.76385 21.3169 5.45849L31.7261 12.2044ZM31.7261 12.2044C32.2065 13.2835 32.4477 14.4266 32.4477 15.6053L32.4477 15.6063C32.4501 16.7341 32.2227 17.8506 31.7794 18.8877L31.7793 18.888C31.352 19.8898 30.7391 20.7923 29.9565 21.5653L29.9552 21.5665C29.1803 22.3375 28.2626 22.9501 27.2534 23.3702L27.253 23.3703C26.2042 23.8078 25.093 24.0302 23.9436 24.0302C22.7942 24.0302 21.6834 23.8078 20.6351 23.3682L20.6344 23.3679C19.6229 22.9454 18.7148 22.3371 17.9309 21.5629M31.7261 12.2044L32.9477 15.6053C32.9502 16.801 32.7091 17.9847 32.2392 19.0842C31.7864 20.1457 31.1367 21.1024 30.3079 21.921C29.4869 22.7378 28.5147 23.3868 27.4455 23.8318C26.3353 24.2948 25.1586 24.5302 23.9436 24.5302C22.7285 24.5302 21.5519 24.2948 20.4417 23.8293C19.3699 23.3816 18.4081 22.737 17.5793 21.9184M17.5793 21.9184L17.9309 21.5629M17.5793 21.9184C16.7583 21.1065 16.1025 20.1431 15.648 19.0816L17.5793 21.9184ZM17.9309 21.5629C17.156 20.7965 16.5368 19.8871 16.1078 18.8852M17.9309 21.5629L16.1078 18.8852M16.1078 18.8852C15.6639 17.8454 15.4395 16.7434 15.4395 15.603L16.1078 18.8852ZM20.0326 7.68586L20.0324 7.68612C19.649 8.15236 19.2145 8.57407 18.737 8.94333L18.7358 8.94421C17.7172 9.72722 16.8889 10.7305 16.3129 11.8789C15.7391 13.0364 15.4402 14.3108 15.4395 15.6027L20.0326 7.68586ZM20.0326 7.68586C20.5839 7.01445 21.0159 6.26554 21.3168 5.45872L20.0326 7.68586Z" fill="url(#paint1_linear_1639:49332)" stroke="white"/>
<path d="M21.4761 12.2044L21.476 12.2041C21.0073 11.1493 20.326 10.2025 19.4747 9.42306L19.4743 9.4227L19.0603 9.04283L18.8754 9.5734C18.8753 9.5736 18.8752 9.57379 18.8751 9.57399C18.641 10.2502 18.219 10.9177 17.6468 11.5549L17.6404 11.5621L17.6403 11.5621C17.4951 11.7177 17.3224 11.7603 17.2152 11.77L17.2152 11.77C17.0888 11.7815 16.8941 11.7582 16.7262 11.6061C16.5697 11.4673 16.4991 11.2701 16.5095 11.0832L16.5097 11.0802C16.5969 9.66149 16.1743 8.01777 15.1939 6.17899L15.1935 6.17823C14.4007 4.68501 13.3051 3.52945 11.9407 2.72425C11.9407 2.7242 11.9406 2.72416 11.9405 2.72411L11.3556 2.37998L11.3869 3.06359L11.387 3.06364C11.4276 3.95173 11.3263 4.76385 11.0669 5.45849L21.4761 12.2044ZM21.4761 12.2044C21.9565 13.2835 22.1977 14.4266 22.1977 15.6053L22.1977 15.6063C22.2001 16.7341 21.9727 17.8506 21.5294 18.8877L21.5293 18.888C21.102 19.8898 20.4891 20.7923 19.7065 21.5653L19.7052 21.5665C18.9303 22.3375 18.0126 22.9501 17.0034 23.3702L17.003 23.3703C15.9542 23.8078 14.843 24.0302 13.6936 24.0302C12.5442 24.0302 11.4334 23.8078 10.3851 23.3682L10.3844 23.3679C9.37292 22.9454 8.46483 22.3371 7.6809 21.5629M21.4761 12.2044L22.6977 15.6053C22.7002 16.801 22.4591 17.9847 21.9892 19.0842C21.5364 20.1457 20.8867 21.1024 20.0579 21.921C19.2369 22.7378 18.2647 23.3868 17.1955 23.8318C16.0853 24.2948 14.9086 24.5302 13.6936 24.5302C12.4785 24.5302 11.3019 24.2948 10.1917 23.8293C9.1199 23.3816 8.15809 22.737 7.3293 21.9184M7.3293 21.9184L7.6809 21.5629M7.3293 21.9184C6.50834 21.1065 5.85249 20.1431 5.39802 19.0816L7.3293 21.9184ZM7.6809 21.5629C6.90595 20.7965 6.28685 19.8871 5.85781 18.8852M7.6809 21.5629L5.85781 18.8852M5.85781 18.8852C5.41393 17.8454 5.18949 16.7434 5.18945 15.603L5.85781 18.8852ZM9.78258 7.68586L9.78237 7.68612C9.399 8.15236 8.96448 8.57407 8.48699 8.94333L8.48585 8.94421C7.46725 9.72722 6.63894 10.7305 6.06291 11.8789C5.48911 13.0364 5.1902 14.3108 5.18945 15.6027L9.78258 7.68586ZM9.78258 7.68586C10.3339 7.01445 10.7659 6.26554 11.0668 5.45872L9.78258 7.68586Z" fill="url(#paint2_linear_1639:49332)" stroke="white"/>
<defs>
<linearGradient id="paint0_linear_1639:49332" x1="35.9026" y1="1.6438" x2="35.9026" y2="24.5302" gradientUnits="userSpaceOnUse">
<stop stop-color="#FCFF80"/>
<stop offset="1" stop-color="#EEC485"/>
</linearGradient>
<linearGradient id="paint1_linear_1639:49332" x1="23.9436" y1="1.6438" x2="23.9436" y2="24.5302" gradientUnits="userSpaceOnUse">
<stop stop-color="#FCFF80"/>
<stop offset="1" stop-color="#EEC485"/>
</linearGradient>
<linearGradient id="paint2_linear_1639:49332" x1="13.6936" y1="1.6438" x2="13.6936" y2="24.5302" gradientUnits="userSpaceOnUse">
<stop stop-color="#FCFF80"/>
<stop offset="1" stop-color="#EEC485"/>
</linearGradient>
</defs>
</svg>
