<svg width="37" height="27" viewBox="0 0 37 27" fill="none" xmlns="http://www.w3.org/2000/svg">
<path d="M31.2671 12.2044L31.267 12.2041C30.7983 11.1493 30.117 10.2025 29.2657 9.42306L29.2653 9.4227L28.8513 9.04283L28.6664 9.5734C28.6663 9.5736 28.6662 9.57379 28.6662 9.57399C28.432 10.2502 28.01 10.9177 27.4378 11.5549L27.4314 11.5621L27.4313 11.5621C27.2861 11.7177 27.1134 11.7603 27.0062 11.77L27.0062 11.77C26.8798 11.7815 26.6851 11.7582 26.5173 11.6061C26.3607 11.4673 26.2902 11.2701 26.3005 11.0832L26.3007 11.0802C26.3879 9.66149 25.9653 8.01777 24.9849 6.17899L24.9845 6.17823C24.1917 4.68501 23.0962 3.52945 21.7317 2.72425C21.7317 2.7242 21.7316 2.72416 21.7315 2.72411L21.1466 2.37998L21.178 3.06359L21.178 3.06364C21.2186 3.95173 21.1173 4.76385 20.8579 5.45849L31.2671 12.2044ZM31.2671 12.2044C31.7475 13.2835 31.9888 14.4266 31.9888 15.6053L31.9888 15.6063C31.9911 16.7341 31.7637 17.8506 31.3204 18.8877L31.3203 18.888C30.893 19.8898 30.2802 20.7923 29.4975 21.5653L29.4963 21.5665C28.7213 22.3375 27.8036 22.9501 26.7944 23.3702L26.794 23.3703C25.7452 23.8078 24.634 24.0302 23.4846 24.0302C22.3353 24.0302 21.2244 23.8078 20.1761 23.3682L20.1754 23.3679C19.1639 22.9454 18.2558 22.3371 17.4719 21.5629M31.2671 12.2044L32.4888 15.6053C32.4912 16.801 32.2501 17.9847 31.7802 19.0842C31.3274 20.1457 30.6777 21.1024 29.8489 21.921C29.0279 22.7378 28.0557 23.3868 26.9865 23.8318C25.8763 24.2948 24.6997 24.5302 23.4846 24.5302C22.2696 24.5302 21.0929 24.2948 19.9827 23.8293C18.9109 23.3816 17.9491 22.737 17.1203 21.9184M17.1203 21.9184L17.4719 21.5629M17.1203 21.9184C16.2994 21.1065 15.6435 20.1431 15.189 19.0816L17.1203 21.9184ZM17.4719 21.5629C16.697 20.7965 16.0779 19.8871 15.6488 18.8852M17.4719 21.5629L15.6488 18.8852M15.6488 18.8852C15.2049 17.8454 14.9805 16.7434 14.9805 15.603L15.6488 18.8852ZM19.5736 7.68586L19.5734 7.68612C19.19 8.15236 18.7555 8.57407 18.278 8.94333L18.2769 8.94421C17.2583 9.72722 16.43 10.7305 15.8539 11.8789C15.2801 13.0364 14.9812 14.3108 14.9805 15.6027L19.5736 7.68586ZM19.5736 7.68586C20.1249 7.01445 20.557 6.26554 20.8578 5.45872L19.5736 7.68586Z" fill="url(#paint0_linear_1639:49327)" stroke="white"/>
<path d="M21.0171 12.2044L21.017 12.2041C20.5483 11.1493 19.867 10.2025 19.0157 9.42306L19.0153 9.4227L18.6013 9.04283L18.4164 9.5734C18.4163 9.5736 18.4162 9.57379 18.4162 9.57399C18.182 10.2502 17.76 10.9177 17.1878 11.5549L17.1814 11.5621L17.1813 11.5621C17.0361 11.7177 16.8634 11.7603 16.7562 11.77L16.7562 11.77C16.6298 11.7815 16.4351 11.7582 16.2673 11.6061C16.1107 11.4673 16.0402 11.2701 16.0505 11.0832L16.0507 11.0802C16.1379 9.66149 15.7153 8.01777 14.7349 6.17899L14.7345 6.17823C13.9417 4.68501 12.8462 3.52945 11.4817 2.72425C11.4817 2.7242 11.4816 2.72416 11.4815 2.72411L10.8966 2.37998L10.928 3.06359L10.928 3.06364C10.9686 3.95173 10.8673 4.76385 10.6079 5.45849L21.0171 12.2044ZM21.0171 12.2044C21.4975 13.2835 21.7388 14.4266 21.7388 15.6053L21.7388 15.6063C21.7411 16.7341 21.5137 17.8506 21.0704 18.8877L21.0703 18.888C20.643 19.8898 20.0302 20.7923 19.2475 21.5653L19.2463 21.5665C18.4713 22.3375 17.5536 22.9501 16.5444 23.3702L16.544 23.3703C15.4952 23.8078 14.384 24.0302 13.2346 24.0302C12.0853 24.0302 10.9744 23.8078 9.92608 23.3682L9.92541 23.3679C8.91393 22.9454 8.00584 22.3371 7.22192 21.5629M21.0171 12.2044L22.2388 15.6053C22.2412 16.801 22.0001 17.9847 21.5302 19.0842C21.0774 20.1457 20.4277 21.1024 19.5989 21.921C18.7779 22.7378 17.8057 23.3868 16.7365 23.8318C15.6263 24.2948 14.4497 24.5302 13.2346 24.5302C12.0196 24.5302 10.8429 24.2948 9.73272 23.8293C8.66092 23.3816 7.69911 22.737 6.87032 21.9184M6.87032 21.9184L7.22192 21.5629M6.87032 21.9184C6.04935 21.1065 5.3935 20.1431 4.93903 19.0816L6.87032 21.9184ZM7.22192 21.5629C6.44697 20.7965 5.82786 19.8871 5.39882 18.8852M7.22192 21.5629L5.39882 18.8852M5.39882 18.8852C4.95495 17.8454 4.7305 16.7434 4.73047 15.603L5.39882 18.8852ZM9.3236 7.68586L9.32338 7.68612C8.94001 8.15236 8.5055 8.57407 8.028 8.94333L8.02686 8.94421C7.00826 9.72722 6.17996 10.7305 5.60393 11.8789C5.03012 13.0364 4.73121 14.3108 4.73047 15.6027L9.3236 7.68586ZM9.3236 7.68586C9.87492 7.01445 10.307 6.26554 10.6078 5.45872L9.3236 7.68586Z" fill="url(#paint1_linear_1639:49327)" stroke="white"/>
<defs>
<linearGradient id="paint0_linear_1639:49327" x1="23.4846" y1="1.6438" x2="23.4846" y2="24.5302" gradientUnits="userSpaceOnUse">
<stop stop-color="#25ED51"/>
<stop offset="1" stop-color="#307D1D"/>
</linearGradient>
<linearGradient id="paint1_linear_1639:49327" x1="13.2346" y1="1.6438" x2="13.2346" y2="24.5302" gradientUnits="userSpaceOnUse">
<stop stop-color="#25ED51"/>
<stop offset="1" stop-color="#307D1D"/>
</linearGradient>
</defs>
</svg>
