<svg width="35" height="15" viewBox="0 0 35 15" xmlns="http://www.w3.org/2000/svg">
    <g fill="#FFC002" fill-rule="nonzero">
        <path d="M.981 2.641C2.234 1.113 4.451.579 6.345 1.35A5.155 5.155 0 0 1 8.09 2.516l-.108.125C7.34 3.421 7 4.398 7 5.463c0 1.532.985 3.214 2.926 5 .67.615 1.391 1.184 2.075 1.679a32.52 32.52 0 0 1-2.352 1.546 2.27 2.27 0 0 1-2.298 0c-.973-.58-2.843-1.771-4.425-3.226C.985 8.677 0 6.995 0 5.462c0-1.064.34-2.04.981-2.821zm11.19-1.633c1.463-.085 2.92.501 3.848 1.633l-.108-.124c-.144.144-.28.296-.411.458-.596-.74-1.33-1.297-2.155-1.625A4.753 4.753 0 0 0 12 1.02z"/>
        <path d="M14.542 1.35c.728.312 1.38.832 1.919 1.52-.53.74-.807 1.63-.807 2.593 0 1.532.984 3.214 2.926 5 .525.482 1.08.935 1.626 1.347-1.02.83-1.995 1.49-2.598 1.878a1.977 1.977 0 0 1-2.132 0c-.904-.58-2.639-1.771-4.107-3.226-1.802-1.785-2.715-3.467-2.715-5 0-1.064.314-2.04.91-2.821a4.158 4.158 0 0 1 4.978-1.291zM33.83 2.356a4.43 4.43 0 0 0-5.27-1.353c-.81.346-1.531.93-2.117 1.704-.586-.776-1.308-1.36-2.117-1.704a4.43 4.43 0 0 0-5.271 1.353c-.63.819-.964 1.842-.964 2.958 0 1.607.967 3.37 2.875 5.24 1.555 1.525 3.392 2.774 4.348 3.382.688.436 1.57.436 2.258 0 .955-.608 2.793-1.857 4.348-3.381 1.907-1.87 2.875-3.634 2.875-5.24 0-1.117-.333-2.14-.964-2.959z"/>
    </g>
</svg>
