<svg width="27" height="15" viewBox="0 0 27 15" xmlns="http://www.w3.org/2000/svg">
    <g fill="#00CF1D" fill-rule="nonzero">
        <path d="M6.888 1.35c.728.312 1.381.832 1.92 1.52C8.277 3.61 8 4.5 8 5.462c0 1.532.985 3.214 2.926 5 .525.482 1.081.935 1.626 1.347-1.02.83-1.995 1.49-2.598 1.878a1.977 1.977 0 0 1-2.132 0c-.903-.58-2.638-1.771-4.106-3.226C1.914 8.677 1 6.995 1 5.462c0-1.064.315-2.04.91-2.821A4.158 4.158 0 0 1 6.888 1.35z"/>
        <path d="M25.54 2.356a4.43 4.43 0 0 0-5.27-1.353c-.81.346-1.531.93-2.117 1.704-.586-.776-1.308-1.36-2.117-1.704a4.43 4.43 0 0 0-5.271 1.353c-.63.819-.964 1.842-.964 2.958 0 1.607.967 3.37 2.875 5.24 1.555 1.525 3.392 2.774 4.348 3.382.688.436 1.57.436 2.258 0 .955-.608 2.793-1.857 4.348-3.381 1.907-1.87 2.875-3.634 2.875-5.24 0-1.117-.333-2.14-.964-2.959z"/>
    </g>
</svg>
