<svg width="44" height="44" viewBox="0 0 44 44" xmlns="http://www.w3.org/2000/svg">
    <g fill="none" fill-rule="evenodd">
        <circle fill="#FD287D" cx="22" cy="22" r="22"/>
        <g fill="#FFF" fill-rule="nonzero">
            <path d="M31.587 32c.493 0 .893-.4.893-.893v-2.779a3.403 3.403 0 0 0 0-6.575v-8.835a.893.893 0 1 0-1.785 0v8.844a3.403 3.403 0 0 0 0 6.575v2.779c.004.49.403.884.892.884zm-1.633-6.96a1.634 1.634 0 1 1 3.268 0 1.634 1.634 0 0 1-3.268 0zM22.5 32c.493 0 .893-.4.893-.893V18.725A3.422 3.422 0 0 0 22.5 12a3.422 3.422 0 0 0-.893 6.725v12.382c0 .493.4.893.893.893zm-1.634-16.554a1.635 1.635 0 0 1 2.786-1.168 1.636 1.636 0 0 1-1.152 2.794 1.634 1.634 0 0 1-1.634-1.626zM12.52 25.3v5.807a.893.893 0 1 0 1.785 0V25.3a3.403 3.403 0 0 0 0-6.575v-5.807a.893.893 0 1 0-1.785 0v5.807a3.403 3.403 0 0 0 0 6.575zm.893-4.923a1.634 1.634 0 0 1 1.167 2.788 1.633 1.633 0 0 1-2.792-1.153c0-.9.726-1.63 1.625-1.635z"/>
        </g>
    </g>
</svg>
