<svg width="21" height="19" viewBox="0 0 21 19" fill="none" xmlns="http://www.w3.org/2000/svg">
    <path fill-rule="evenodd" clip-rule="evenodd" d="M9.688 18.378a1.231 1.231 0 0 0 1.624 0c.85-.743 1.67-1.441 2.392-2.057 2.115-1.803 3.942-3.36 5.213-4.894C20.338 9.713 21 8.087 21 6.311c0-1.725-.591-3.317-1.666-4.483A5.647 5.647 0 0 0 15.134 0a5.282 5.282 0 0 0-3.3 1.139c-.493.381-.94.848-1.334 1.393a6.75 6.75 0 0 0-1.334-1.393A5.282 5.282 0 0 0 5.866 0c-1.621 0-3.113.65-4.2 1.828C.592 2.994 0 4.586 0 6.311c0 1.776.662 3.402 2.083 5.117 1.271 1.533 3.098 3.09 5.214 4.893l.003.003c.722.615 1.54 1.312 2.388 2.054zM2.571 2.662A4.43 4.43 0 0 1 5.867 1.23c.933 0 1.79.297 2.547.882.674.521 1.144 1.18 1.42 1.642a.77.77 0 0 0 .667.38.77.77 0 0 0 .667-.38c.275-.461.745-1.12 1.419-1.642a4.08 4.08 0 0 1 2.547-.882 4.43 4.43 0 0 1 3.296 1.432c.864.937 1.34 2.233 1.34 3.649 0 1.494-.555 2.83-1.8 4.331-1.201 1.45-2.988 2.974-5.058 4.738l-.005.004c-.726.619-1.549 1.32-2.408 2.069a244.582 244.582 0 0 0-2.4-2.065l-.004-.003-.001-.001c-2.072-1.766-3.86-3.29-5.064-4.742-1.244-1.501-1.8-2.837-1.8-4.331 0-1.416.476-2.712 1.34-3.649z" fill="#fff"/>
</svg>
