<svg width="36" height="36" viewBox="0 0 36 36" xmlns="http://www.w3.org/2000/svg">
    <g fill-rule="nonzero" fill="none">
        <path fill="#F86B00" d="M6.978 27.138h21.71v1.55H6.978z"/>
        <path fill="#FFA233" d="M6.978 27.138v3.101H0l1.55-2.326L0 25.587h4.652v1.55zM35.667 25.587l-1.551 2.326 1.55 2.326h-6.978v-3.101h2.327v-1.551z"/>
        <path fill="#FFDC56" d="M25.587.97v6.784H10.08V.969l4.652 2.132L17.833 0l3.102 3.101z"/>
        <path d="m6.203 12.406 1.434 8.265-2.349-1.473a4.652 4.652 0 0 1-2.187-3.947v-1.62a4.626 4.626 0 0 1-1.55-3.458v-2.69A4.626 4.626 0 0 1 0 4.023V0l4.125 1.543a4.679 4.679 0 0 1 2.783 2.892L8.46 9.103l-2.256 3.303zM34.116 7.482v2.69c0 1.322-.564 2.58-1.55 3.459v1.62a4.652 4.652 0 0 1-2.187 3.947l-2.35 1.473 1.435-8.265-2.257-3.303 1.551-4.668a4.679 4.679 0 0 1 2.784-2.892L35.667 0v4.024c0 1.321-.564 2.58-1.551 3.458z" fill="#D6E0FB"/>
        <path fill="#4F4EFF" d="m8.46 9.103.883-1.28 1.512 3.032-1.55 2.326-3.102-.775z"/>
        <path fill="#805BFF" d="m7.637 20.671-1.434-8.265 3.101.775 2.326 15.507-2.326 1.551z"/>
        <path fill="#5C52FF" d="m27.207 9.103 2.257 3.303-3.102.775-1.55-2.326 1.512-3.032z"/>
        <path fill="#805BFF" d="m28.03 20.671-1.668 9.568-2.326-1.55 2.326-15.508 3.102-.775zM26.324 7.823l-1.512 3.032H10.855L9.343 7.823l.047-.07h16.887z"/>
        <path fill="#AF77FF" d="m24.812 10.855 1.55 2.326-2.326 15.507-6.203 3.877-6.203-3.877-2.326-15.507 1.551-2.326z"/>
        <path d="M24.812 10.855H10.894a14.699 14.699 0 0 0 13.73 13.908l1.738-11.582-1.55-2.326z" fill="#B988FF"/>
        <path fill="#FFDC56" d="M31.015 25.587v1.55H4.652v-4.651H31.015z"/>
        <path fill="#514EF0" d="M11.63 28.688 9.304 30.24l8.53 5.428v-3.102z"/>
        <path fill="#5C52FF" d="M17.833 32.565v3.102l8.53-5.428-2.327-1.55z"/>
        <path fill="#FFB337" d="M31.015 25.587v1.55h-2.327v.776h5.428l1.55-2.326zM4.652 25.587v1.55h2.326v.776H1.551L0 25.587z"/>
        <path fill="#FFF86A" d="M5.428 23.26h24.811v3.102H5.428zM20.935 3.101 17.833 0l-3.101 3.101L10.08.97v2.326l3.672 1.684a1.55 1.55 0 0 0 1.742-.31l2.34-2.343 2.339 2.34a1.55 1.55 0 0 0 1.742.31l3.672-1.68V.968l-4.652 2.132z"/>
        <path fill="#FFCA46" d="M10.08 6.978h15.507v.776H10.08z"/>
        <path d="M5.428 15.251v-1.62a4.626 4.626 0 0 1-1.551-3.458v-2.69a4.626 4.626 0 0 1-1.55-3.459V.87L0 0v4.024c0 1.321.564 2.58 1.55 3.458v2.69c0 1.322.564 2.58 1.551 3.459v1.62c0 1.605.826 3.097 2.187 3.947l2.35 1.473-.29-1.663a4.652 4.652 0 0 1-1.92-3.757zM33.34.87V4.8c.001 1.32-.563 2.58-1.55 3.458v2.69c0 1.321-.564 2.58-1.55 3.458v1.62a4.652 4.652 0 0 1-2.076 3.867l-.135.776 2.35-1.473a4.652 4.652 0 0 0 2.186-3.945v-1.62a4.626 4.626 0 0 0 1.551-3.458v-2.69a4.626 4.626 0 0 0 1.55-3.459V0l-2.325.87z" fill="#E9E9FF"/>
        <path fill="#514EF0" d="m11.63 28.688-.232-1.55H8.764l.27 1.55h2.364zM24.269 27.138l-.233 1.55h2.596l.27-1.55z"/>
        <path fill="#805BFF" d="m11.398 27.138.232 1.55h12.406l.233-1.55z"/>
        <path fill="#FF8D1F" d="M32.565 25.587v2.326H30.24v2.326h-1.55v-3.101h2.326v-1.551zM3.101 25.587v2.326h2.327v2.326h1.55v-3.101H4.652v-1.551z"/>
        <g transform="translate(6.978 22.486)" fill="#FFCA46">
            <path d="M3.49.388c0 .214.173.387.387.387h11.63a.388.388 0 1 0 0-.775H3.877a.388.388 0 0 0-.388.388zM16.67.388c0 .214.174.387.388.387h.775a.388.388 0 1 0 0-.775h-.775a.388.388 0 0 0-.388.388z"/>
            <rect y="3.877" width="4.652" height="1" rx=".5"/>
            <rect x="5.428" y="3.877" width="1.551" height="1" rx=".5"/>
        </g>
        <ellipse fill="#EAF6FF" transform="rotate(-45 23.014 13.73)" cx="23.014" cy="13.73" rx="1.273" ry="1.772"/>
        <circle fill="#EAF6FF" transform="rotate(-45 23.787 16.843)" cx="23.787" cy="16.843" r="1"/>
        <circle fill="#EAF6FF" transform="rotate(-45 15.058 18.779)" cx="15.058" cy="18.779" r="1"/>
    </g>
</svg>
