<svg width="36" height="36" viewBox="0 0 36 36" xmlns="http://www.w3.org/2000/svg">
    <g fill="none" fill-rule="evenodd">
        <path d="M12.406 4.652V7.56c-2.196.606-4.46.927-6.738.953-4.18-.162-4.893-2.31-4.893-2.31l3.102-.775-2.163-.69A3.117 3.117 0 0 1 0 1.961V0s7.754 4.652 12.406 4.652zM34.891 6.203S34.178 8.35 30 8.513a26.463 26.463 0 0 1-6.738-.953V4.652C27.913 4.652 35.667 0 35.667 0v1.962a3.117 3.117 0 0 1-1.714 2.775l-2.163.69 3.101.776z" fill="#FF8F75" fill-rule="nonzero"/>
        <path d="M23.26 4.652V7.56c-4.016-1.14-5.427-2.908-5.427-2.908s-1.41 1.768-5.427 2.908V.97L15.662 3.1 17.833 0l2.171 3.101L23.261.97v3.683z" fill="#FFDC56" fill-rule="nonzero"/>
        <path d="m18.748 32-.915.565-.891-.605-3.769-2.55a12.56 12.56 0 0 1-5.42-10.414v-8.14c2.484.07 4.957-.357 7.274-1.257l2.806 2.807 2.807-2.807c2.316.9 4.79 1.327 7.273 1.256v8.413a12.524 12.524 0 0 1-5.846 10.692L18.748 32z" fill="#E9E9FF" fill-rule="nonzero"/>
        <path d="M29.999 8.513c.333.008.667.016 1.015.016v10.514A15.501 15.501 0 0 1 23.37 32.41l-3.132 1.838-.078-.132-1.41-2.117 3.318-2.039a12.524 12.524 0 0 0 5.846-10.692v-8.413A18.625 18.625 0 0 1 20.64 9.6a7.095 7.095 0 0 1-2.807-1.845 7.095 7.095 0 0 1-2.806 1.845c-2.317.9-4.79 1.327-7.273 1.256v8.141a12.56 12.56 0 0 0 5.42 10.413l3.768 2.551-1.435 2.156-.023.031-3.753-2.427a15.51 15.51 0 0 1-7.079-13.018V8.529c.35 0 .682-.008 1.016-.016a26.463 26.463 0 0 0 6.738-.953c4.016-1.14 5.427-2.908 5.427-2.908s1.411 1.768 5.428 2.908c2.195.606 4.46.927 6.738.953z" fill="#A166F5" fill-rule="nonzero"/>
        <path d="M17.833 4.652s1.411 1.768 5.428 2.908V6.01C19.244 4.87 17.833 3.1 17.833 3.1s-1.41 1.768-5.427 2.908v1.55c4.016-1.139 5.427-2.907 5.427-2.907z" fill="#FFB337" fill-rule="nonzero"/>
        <path d="M27.913 9.692a17.671 17.671 0 0 1-6.823-1.163 6.418 6.418 0 0 1-2.332-1.479 1.168 1.168 0 0 0-.91-.448 1.225 1.225 0 0 0-.924.434 6.358 6.358 0 0 1-2.347 1.493 17.678 17.678 0 0 1-6.823 1.163c-.643 0-1.163.52-1.163 1.163v8.141a13.666 13.666 0 0 0 5.93 11.376l4.66 3.155c.38.258.875.268 1.265.027l4.23-2.603a13.74 13.74 0 0 0 6.4-11.683v-8.413c0-.642-.52-1.163-1.163-1.163zm0 9.576a12.524 12.524 0 0 1-5.846 10.692L18.748 32l-.915.565-.891-.605-3.769-2.55a12.56 12.56 0 0 1-5.42-10.414v-8.14c2.484.07 4.957-.357 7.274-1.257a7.095 7.095 0 0 0 2.806-1.845 7.095 7.095 0 0 0 2.807 1.845c2.316.9 4.79 1.327 7.273 1.256v8.413z" fill="#7655FF" fill-rule="nonzero"/>
        <path d="M17.833 7.754a7.095 7.095 0 0 1-2.806 1.845c-2.317.9-4.79 1.327-7.273 1.256v8.141a12.56 12.56 0 0 0 5.42 10.413l3.768 2.551.891.605.915-.566 3.319-2.039a12.524 12.524 0 0 0 5.846-10.692v-8.413A18.625 18.625 0 0 1 20.64 9.6a7.095 7.095 0 0 1-2.807-1.845zm8.917 11.514a11.398 11.398 0 0 1-5.292 9.7l-3.318 2.04-.274.17-4.037-2.734a11.344 11.344 0 0 1-4.912-9.448v-7.001a18.903 18.903 0 0 0 6.557-1.318 10.41 10.41 0 0 0 2.36-1.342c.722.547 1.514.996 2.354 1.336a18.899 18.899 0 0 0 6.562 1.324v7.273z" fill="#C9D1F6" fill-rule="nonzero"/>
        <path fill="#FFDC56" fill-rule="nonzero" d="m20.237 34.248-2.404 1.419-2.349-1.52.023-.031 1.435-2.156.891.605.915-.566 1.411 2.117zM20.64 9.599l-2.807 2.807-2.806-2.807a7.095 7.095 0 0 0 2.806-1.845 7.095 7.095 0 0 0 2.807 1.845z"/>
        <path d="M19.597 9.092a6.139 6.139 0 0 1-1.764-1.338 6.139 6.139 0 0 1-1.763 1.338l1.763 1.763 1.764-1.763z" fill="#FF8F75" fill-rule="nonzero"/>
        <path d="m15.904 10.477 1.93 1.929 1.928-1.93c-.683-.307-1.33-.69-1.929-1.14-.599.45-1.246.833-1.929 1.14z"/>
        <path d="M15.904 10.477c-.142.065-.276.132-.43.196a17.891 17.891 0 0 1-5.297 1.224 17.052 17.052 0 0 0 13.774 14.94 11.6 11.6 0 0 0 2.799-7.57v-7.272a18.899 18.899 0 0 1-6.562-1.324c-.155-.064-.285-.13-.426-.194l-1.929 1.929-1.929-1.93z" fill="#FFF" fill-rule="nonzero"/>
        <path fill="#FF8F75" fill-rule="nonzero" d="M19.503 33.13 18.748 32l-.915.565-.891-.605-.735 1.104 1.626 1.052z"/>
        <path d="M35.667 1.962V0S27.913 4.652 23.26 4.652V7.56c.78.224 1.57.406 2.37.543a3.091 3.091 0 0 1 3.057-2.675h3.102l2.163-.69a3.117 3.117 0 0 0 1.714-2.776zM0 1.962V0s7.754 4.652 12.406 4.652V7.56c-.78.224-1.57.406-2.37.543a3.091 3.091 0 0 0-3.058-2.675H3.877l-2.163-.69A3.117 3.117 0 0 1 0 1.961z" fill="#FFAB6F" fill-rule="nonzero"/>
        <circle fill="#EAF6FF" fill-rule="nonzero" transform="rotate(-45.02 21.464 4.425)" cx="21.464" cy="4.425" r="1"/>
        <circle fill="#FFF" fill-rule="nonzero" transform="rotate(-45.02 12.16 22.259)" cx="12.159" cy="22.259" r="1"/>
        <circle fill="#EAF6FF" fill-rule="nonzero" transform="rotate(-45.02 14.287 4.038)" cx="14.287" cy="4.038" r="1"/>
        <ellipse fill="#FFF" fill-rule="nonzero" transform="rotate(-45.02 14.487 24.575)" cx="14.487" cy="24.575" rx="1.273" ry="1.772"/>
    </g>
</svg>
