<svg width="30" height="36" viewBox="0 0 30 36" xmlns="http://www.w3.org/2000/svg">
    <g fill-rule="nonzero" fill="none">
        <path fill="#FFDC56" d="m19.343 15.472-2.32 2.321.773 3.868-3.095-2.32-3.094 2.32.773-3.868-2.32-2.32h3.094l1.547-3.095 1.547 3.094z"/>
        <path d="M25.532 0 29.4 3.868c-3.868 11.604 0 9.283 0 17.793C29.4 30.21 14.7 35.586 14.7 35.586S.003 30.21.003 21.661c0-8.51 3.868-6.189 0-17.793L3.87 0c1.547 1.547 2.32 3.094 5.415 3.094C10.833 3.094 14.7 1.71 14.7 0c0 1.71 3.868 3.094 5.416 3.094 3.094 0 3.868-1.547 5.415-3.094zm-.79 24.957c3.095-3.76.774-9.794 0-12.803-.773-3.01.774-7.512.774-7.512-1.547 1.5-2.32 2.25-5.415 2.25-1.493 0-5.168-.548-5.4-2.096.007-.05.01-.103.008-.154h-.016c0 .051.002.103.008.154-.232 1.548-3.907 2.097-5.4 2.097-3.094 0-3.868-.75-5.415-2.251 0 0 1.547 4.51.774 7.512-.774 3.001-3.095 9.043 0 12.803 3.009 3.644 9.654 6.591 10.033 6.761h.016c.379-.17 7.024-3.117 10.034-6.761z" fill="#FFDC56"/>
        <path d="M24.743 12.154c.773 3.009 3.094 9.043 0 12.803-3.01 3.644-9.655 6.591-10.034 6.761h-.016c-.379-.17-7.024-3.117-10.033-6.761-3.095-3.76-.774-9.794 0-12.803.773-3.01-.774-7.512-.774-7.512 1.547 1.5 2.32 2.25 5.415 2.25 1.493 0 5.168-.548 5.4-2.096.232 1.548 3.907 2.097 5.4 2.097 3.095 0 3.868-.75 5.415-2.251 0 0-1.547 4.51-.773 7.512zm-7.72 5.64 2.32-2.322h-3.095l-1.547-3.094-1.547 3.094H10.06l2.32 2.321-.773 3.868 3.094-2.32 3.095 2.32-.774-3.868z" fill="#A166F5"/>
        <path d="M26.21 13.1c-.13-.452-.248-.868-.343-1.238-.676-2.624.733-6.808.747-6.847a1.16 1.16 0 0 0-1.905-1.208c-1.483 1.44-1.983 1.925-4.608 1.925-1.832 0-4.006-.652-4.255-1.125a1.167 1.167 0 0 0-1.14-.983 1.146 1.146 0 0 0-1.145.974c-.228.475-2.417 1.134-4.255 1.134-2.625 0-3.125-.485-4.608-1.923a1.16 1.16 0 0 0-1.91 1.209c.398 1.16 1.31 4.66.746 6.847-.094.367-.213.783-.342 1.238-.946 3.298-2.523 8.833.573 12.593 2.997 3.629 9.223 6.53 10.454 7.081.312.138.669.135.979-.007 1.217-.541 7.442-3.445 10.444-7.076 3.091-3.758 1.514-9.293.568-12.594zm-1.467 11.857c-3.01 3.644-9.655 6.591-10.034 6.761h-.016c-.379-.17-7.024-3.117-10.033-6.761-3.095-3.76-.774-9.794 0-12.803.773-3.01-.774-7.512-.774-7.512 1.547 1.5 2.32 2.25 5.415 2.25 1.493 0 5.168-.548 5.4-2.096.232 1.548 3.907 2.097 5.4 2.097 3.095 0 3.868-.75 5.415-2.251 0 0-1.547 4.51-.773 7.512.773 3.001 3.094 9.043 0 12.803z" fill="#FFCA46"/>
        <path d="M24.743 12.154c-.774-3.002.773-7.512.773-7.512-1.547 1.5-2.32 2.25-5.415 2.25-1.493 0-5.168-.548-5.4-2.096-.232 1.548-3.907 2.097-5.4 2.097-3.094 0-3.868-.75-5.415-2.251 0 0 1.547 4.51.774 7.512-.774 3.001-3.095 9.043 0 12.803 3.009 3.644 9.654 6.591 10.033 6.761h.016c.379-.17 7.024-3.117 10.034-6.761 3.094-3.76.773-9.794 0-12.803zm-.895 12.068c-2.402 2.904-7.49 5.445-9.147 6.223-1.635-.768-6.739-3.313-9.145-6.225-2.321-2.819-1.006-7.432-.131-10.484.135-.472.259-.907.358-1.293a12.444 12.444 0 0 0 0-4.947 8.849 8.849 0 0 0 3.52.557c.045 0 3.52-.048 5.399-1.376 1.878 1.328 5.354 1.376 5.4 1.376a8.849 8.849 0 0 0 3.519-.557 12.455 12.455 0 0 0 0 4.946c.1.387.224.822.359 1.294.869 3.051 2.186 7.665-.132 10.482v.004z" fill="#FFF"/>
        <path fill="#FFA233" d="m19.343 15.472-2.32 2.321.773 3.868-3.095-2.32-3.094 2.32.773-3.868-2.32-2.32h3.094l1.547-3.095 1.547 3.094z"/>
        <path fill="#FFCA46" d="M13.154 15.472H10.06L14.7 17.02zM16.248 15.472l-1.547-3.094v4.642z"/>
        <path fill="#FFB337" d="m14.701 12.378-1.547 3.094 1.547 1.548zM19.343 15.472h-3.095l-1.547 1.548z"/>
        <path fill="#FF8D1F" d="m17.022 17.793 2.32-2.32-4.64 1.547z"/>
        <path fill="#FF711F" d="m12.38 17.793-.773 3.868L14.7 17.02z"/>
        <path fill="#FF8D1F" d="m14.701 19.34 3.095 2.321L14.7 17.02z"/>
        <path fill="#FFB337" d="m14.701 17.02 3.095 4.641-.774-3.868z"/>
        <path fill="#FFA233" d="m11.607 21.661 3.094-2.32V17.02z"/>
        <path fill="#FF8D1F" d="m10.06 15.472 2.32 2.321 2.321-.773z"/>
        <path d="M20.058 15.176a.774.774 0 0 0-.715-.477h-2.616l-1.33-2.667a.806.806 0 0 0-1.384 0L12.676 14.7H10.06a.774.774 0 0 0-.547 1.32l2.027 2.029-.691 3.459a.774.774 0 0 0 1.222.773l2.63-1.973 2.63 1.973a.774.774 0 0 0 1.223-.773l-.692-3.462 2.028-2.029a.774.774 0 0 0 .168-.84zm-3.036 2.617.774 3.868-3.095-2.32-3.094 2.32.773-3.868-2.32-2.32h3.094l1.547-3.095 1.547 3.094h3.095l-2.32 2.321z" fill="#FFF"/>
        <g transform="translate(5.202 8.456)" fill="#EAF6FF">
            <ellipse transform="rotate(-45 15.444 2.148)" cx="15.444" cy="2.148" rx="1.27" ry="1.768"/>
            <circle transform="rotate(-45 16.988 5.254)" cx="16.988" cy="5.254" r="1"/>
            <circle transform="rotate(-45 .54 11.825)" cx=".54" cy="11.825" r="1"/>
        </g>
        <path d="M27.418 18.98a9.21 9.21 0 0 1-1.78 6.714c-2.999 3.63-9.224 6.532-10.443 7.076-.31.142-.667.145-.979.007-1.231-.551-7.457-3.452-10.454-7.081a9.211 9.211 0 0 1-1.78-6.716 11.231 11.231 0 0 1-1.459-1.96 18.257 18.257 0 0 0-.52 4.641C.003 30.21 14.7 35.586 14.7 35.586S29.4 30.21 29.4 21.661a18.257 18.257 0 0 0-.52-4.641 11.197 11.197 0 0 1-1.462 1.96z" fill="#FFCA46"/>
        <path d="M26.305 20.037a7.548 7.548 0 0 1-1.562 4.92c-3.01 3.644-9.655 6.591-10.034 6.761h-.016c-.379-.17-7.024-3.117-10.033-6.761a7.548 7.548 0 0 1-1.563-4.92c-.391-.33-.762-.682-1.112-1.056a9.211 9.211 0 0 0 1.78 6.716c2.997 3.63 9.223 6.53 10.454 7.082.312.137.669.135.979-.007 1.217-.542 7.442-3.446 10.444-7.076a9.21 9.21 0 0 0 1.779-6.715c-.35.374-.723.726-1.116 1.056z" fill="#FFA233"/>
        <path d="M4.305 20.954a5.933 5.933 0 0 0 1.25 3.266c2.407 2.912 7.51 5.457 9.146 6.225 1.657-.778 6.745-3.319 9.147-6.227a5.933 5.933 0 0 0 1.25-3.264A18.522 18.522 0 0 1 14.7 23.982a18.517 18.517 0 0 1-10.396-3.028z" fill="#7655FF"/>
        <path d="M4.66 24.957c3.009 3.644 9.654 6.591 10.033 6.761h.016c.379-.17 7.024-3.117 10.034-6.761a7.548 7.548 0 0 0 1.562-4.92c-.386.327-.79.634-1.208.919a5.933 5.933 0 0 1-1.25 3.264c-2.401 2.906-7.489 5.447-9.146 6.225-1.635-.768-6.739-3.313-9.145-6.225a5.933 5.933 0 0 1-1.25-3.266c-.42-.284-.823-.59-1.209-.917a7.548 7.548 0 0 0 1.563 4.92z" fill="#D6E0FB"/>
    </g>
</svg>
