<svg width="23" height="36" viewBox="0 0 23 36" xmlns="http://www.w3.org/2000/svg">
    <g fill-rule="nonzero" fill="none">
        <path d="M23 .767v2.3a.767.767 0 0 1-.767.766H20.7V2.3H2.3v1.533H.767A.767.767 0 0 1 0 3.067v-2.3C0 .343.343 0 .767 0h21.466c.424 0 .767.343.767.767z" fill="#D6E0FB"/>
        <path fill="#7655FF" d="M20.7 8.433V11.5l-9.2 7.667L2.3 11.5V8.433l9.2 7.667z"/>
        <g fill="#A166F5">
            <path d="M20.7 5.367v3.066L11.5 16.1 2.3 8.433V5.367l9.2 7.666z"/>
            <path d="M20.7 3.833v1.534l-9.2 7.666-9.2-7.666V2.3l9.2 7.667L20.7 2.3z"/>
            <path d="m20.7 2.3-9.2 7.667L2.3 2.3z"/>
        </g>
        <path d="m11.5 19.167-.767-.639V23c.256-.014.512-.014.767 0 .255-.014.511-.014.767 0v-4.472l-.767.639z" fill="#FFA233"/>
        <path fill="#FFB337" d="M18.4 26.067h-4.6l-.02-.042-2.28 3.108z"/>
        <path fill="#FFCA46" d="m13.78 26.025-2.28-4.558v7.666z"/>
        <path fill="#FFB337" d="m16.605 35.22.07.047-1.718-5.727-3.457-.407z"/>
        <path fill="#FF8D1F" d="m14.957 29.54-.007-.023 3.45-3.45-6.9 3.066z"/>
        <path fill="#FFB337" d="m11.5 21.467-2.28 4.558 2.28 3.108z"/>
        <path fill="#FFA233" d="m6.395 35.22 5.105-3.403v-2.684z"/>
        <path fill="#FF8D1F" d="M11.5 29.133v2.684l5.105 3.403zM4.6 26.067l3.45 3.45-.007.023 3.457-.407z"/>
        <path fill="#FFCA46" d="m9.22 26.025-.02.042H4.6l6.9 3.066z"/>
        <path fill="#FF711F" d="m8.043 29.54-1.718 5.727.07-.047 5.105-6.087z"/>
        <path d="M20.7.767H1.533a.767.767 0 0 0-.766.766v2.3H2.3V2.3h18.4v1.533h.767v-2.3A.767.767 0 0 0 20.7.767z" fill="#AEB4E4"/>
        <path d="M20.7 1.533H2.3a.767.767 0 0 0-.767.767v9.2c0 .227.102.443.276.589l9.2 7.666a.767.767 0 0 0 .982 0l9.2-7.666a.766.766 0 0 0 .276-.589V2.3a.767.767 0 0 0-.767-.767zm0 2.3V11.5l-9.2 7.667L2.3 11.5V2.3h18.4v1.533z" fill="#FFA233"/>
        <path d="M11.5 15.103 2.79 7.845a.754.754 0 0 0-.49-.168V9.43l8.71 7.257a.767.767 0 0 0 .98 0L20.7 9.43V7.677a.748.748 0 0 0-.49.168l-8.71 7.258z" fill="#FFA233"/>
        <path d="M11.5 13.8c.18 0 .353-.063.49-.178l8.71-7.259V4.61a.753.753 0 0 0-.49.168l-8.71 7.259-8.71-7.26a.754.754 0 0 0-.49-.166v1.752l8.71 7.258c.137.115.31.179.49.179z" fill="#FFCA46"/>
        <path d="M11.5 10.733c.18 0 .353-.062.49-.178l8.71-7.258V2.3h-1.198L11.5 8.97 3.498 2.3H2.3v.997l8.71 7.257c.137.116.31.18.49.18z" fill="#FFF86A"/>
        <path d="M6.656 3.45c0 .212.108.383.24.383h7.187c.133 0 .24-.171.24-.383s-.107-.383-.24-.383H6.895c-.131 0-.239.171-.239.383zM15.09 3.45c0 .212.171.383.383.383h.767a.383.383 0 1 0 0-.766h-.767a.383.383 0 0 0-.383.383z" fill="#C29AFF"/>
        <circle fill="#EAF6FF" transform="rotate(-45 5.89 3.614)" cx="5.889" cy="3.614" r="1"/>
        <circle fill="#EAF6FF" transform="rotate(-45 7.227 4.766)" cx="7.227" cy="4.766" r="1"/>
    </g>
</svg>
